<?xml version="1.0" encoding="utf-8"?>
<!-- Generator: Adobe Illustrator 27.5.0, SVG Export Plug-In . SVG Version: 6.00 Build 0)  -->
<svg version="1.1" xmlns="http://www.w3.org/2000/svg" xmlns:xlink="http://www.w3.org/1999/xlink" x="0px" y="0px"
	 viewBox="0 0 750 500" style="enable-background:new 0 0 750 500;" xml:space="preserve">
<g id="BACKGROUND">
	<g>
		<rect y="-0.004" style="fill:#FFFFFF;" width="750" height="500"/>
	</g>
</g>
<g id="OBJECTS">
	<g>
		<g>
			<path style="fill:#FF8B66;" d="M590.937,126.306c0.771,0.935,1.982,4.515,1.982,4.515c0.463,2.991,0.734,4.643,1.735,6.041
				c0.99,1.397-1.017,12.194-1.017,12.194s4.9-0.041,8.375-2.5c0,0,0.182-8.561,0.558-9.227c0.741-1.332,3.005-1.985,3.855-4.691
				c0.85-2.717,3.242-5.698,3.242-5.698s-0.611-1.441-1.836-0.612c-1.237,0.839-2.07,3.002-2.731,3.204
				c-0.135,0.04-0.269,0.069-0.402,0.076c0,0-0.011,0-0.034,0.01c-0.501,0.051-1.009-0.076-1.31-0.385
				c-0.022-0.012-0.055-0.035-0.076-0.069c-1.059-1.31-1.199-5.069-1.103-6.743c0.138-2.328,0.149-5.549-1.288-5.049
				s-0.179,1.838-1.436,6.942l-0.535,0.05c-0.111,0.363-0.98-3.152-1.112-6.432c-0.097-2.258-1.599-1.471-1.942-0.771
				c-0.355,0.7,0.076,2.957,0.125,4.591c0.044,1.079,0.099,2.202,0.134,2.87l-0.632,0.325c-2.121-3.976-1.305-5.572-2.612-5.69
				c-1.296-0.118-0.932,3.193-0.271,4.468c0.283,0.553,0.537,1.694,0.735,2.811c-2.215-2.723-1.917-4.102-2.977-3.968
				C589.271,122.711,590.166,125.371,590.937,126.306z"/>
			<path style="fill:#EF6E4B;" d="M600.669,132.727c0.843-2.118,3.647-3.009,3.995-3.109c-0.501,0.051-1.009-0.076-1.31-0.385
				C600.598,130.369,600.669,132.727,600.669,132.727z"/>
		</g>
		<path style="fill:#662C33;" d="M628.083,175.62l-12.57,3.638l-1.837,1.396l-12.163,0.651l0.833-26.529l1.167-1.06l-0.833-11.077
			l-14.168,4.74l0.166,9.836l-1.167,4.356c0,0-2.835,30.021-3.002,31.836c-0.167,1.815,4.667,5.676,4.667,5.676l35.302-2.611
			l1.066,4.266l4.283-15.513L628.083,175.62z"/>
		<path style="fill:#4C1E27;" d="M644.431,172.578c0,0,9.498,7.932,35.412,4.26v8.388c0,0-15.167,9.735-23.167,7.699
			c-8-2.036-13.667-11.62-13.667-11.62L644.431,172.578z"/>
		<g>
			<path style="fill:#662C33;" d="M699.803,430.307h-25.891c-1.81-10.292,1.077-20.595,1.077-20.595l11.835-2.032
				c1.077,6.506,2.376,9.071,4.175,10.392c0.011,0,0.011,0,0.011,0c1.31,0.955,2.875,1.266,4.83,1.943
				c2.232,0.777,3.409,2.187,3.997,3.719C701.002,426.777,699.803,430.307,699.803,430.307z"/>
			<path style="fill:#8B383E;" d="M699.836,423.735c-6.384,0.799-20.406,2.165-19.552-1.532c0.711-3.087,6.628-3.919,10.714-4.13
				c0.011,0,0.011,0,0.011,0c1.31,0.955,2.875,1.266,4.83,1.943C698.071,420.793,699.248,422.203,699.836,423.735z"/>
		</g>
		<g>
			<path style="fill:#662C33;" d="M646.113,430.307h-25.891c0,0-0.822-2.42-0.444-4.985c0.311-2.087,1.421-4.275,4.408-5.307
				c2.243-0.777,3.964-1.066,5.374-2.387c1.532-1.443,2.676-4.108,3.642-9.948l11.835,2.032
				C645.036,409.712,647.912,420.015,646.113,430.307z"/>
			<path style="fill:#8B383E;" d="M619.778,425.323c0.311-2.087,1.421-4.275,4.408-5.307c2.243-0.777,3.964-1.066,5.374-2.387
				c3.275,1.01,7.861,2.865,9.282,5.673C640.817,427.154,625.684,426.544,619.778,425.323z"/>
		</g>
		<path style="fill:#8BBDDB;" d="M688.463,389.811c2.049-2.352,0-48.328,0-48.328s1.617-8.446,1.18-21.091
			c-0.438-12.645-1.23-34.387-1.285-36.634c-0.055-2.248-1.793-28.528-1.793-28.528l-26.687,1.223l-26.687-1.223
			c0,0-1.738,26.281-1.793,28.528c-0.055,2.248-0.847,23.989-1.285,36.634c-0.438,12.645,1.18,21.091,1.18,21.091
			s-2.049,45.976,0,48.328c2.049,2.352-2.64,24.363-1.18,24.422c1.46,0.06,11.286,1.73,16.591,7.131l2.305-22.819
			c0,0-1-17.805,0-19.82s7-80.289,8-81.297c0.558-0.562,1.842-1.066,2.869-1.402c1.027,0.336,2.311,0.839,2.869,1.402
			c1,1.008,7,79.281,8,81.297s0,19.82,0,19.82l2.305,22.819c5.305-5.4,15.13-7.071,16.591-7.131
			C691.104,414.174,686.414,392.163,688.463,389.811z"/>
		<path style="fill:#105E99;" d="M632.007,175.674c0,0,43.669,3.405,60.669,9.56c0,0-4.994,63.509-3.83,98.331
			c0,0-24.396,3.488-57.449-7.845C631.397,275.72,623.549,191.023,632.007,175.674z"/>
		<path style="fill:#EF6E4B;" d="M653.929,171.493c0,0,2.069,6.509,0,9.017c0,0,2.149,4.509,6.012,4.709
			c4.463,0.23,6.011-4.709,6.011-4.709s-2.36-6.287,0-8.496L653.929,171.493z"/>
		<g>
			<path style="fill:#FF8B66;" d="M648.115,159.778c0,0-3.247-3.24-3.647,0.548c-0.463,4.389,3.523,6.157,4.302,4.761
				C649.549,163.69,648.115,159.778,648.115,159.778z"/>
			<path style="fill:#FF8B66;" d="M670.854,160.006c0,0,3.247-3.241,3.647,0.548c0.463,4.389-3.523,6.157-4.302,4.761
				C669.42,163.919,670.854,160.006,670.854,160.006z"/>
			<path style="fill:#FF8B66;" d="M659.142,175.674c-7.205,0-11.272-4.706-11.272-18.821c0-7.281,3.705-11.747,11.775-11.747
				c8.07,0,11.469,4.466,11.469,11.747C671.115,172.02,666.585,175.674,659.142,175.674z"/>
			<path style="fill:#DB614D;" d="M668.728,161.887c0.127,0.724-0.505,1.439-1.411,1.597c-0.906,0.158-1.742-0.301-1.868-1.025
				c-0.127-0.724,0.505-1.439,1.411-1.597C667.765,160.704,668.602,161.163,668.728,161.887z"/>
			<path style="fill:#DB614D;" d="M653.909,162.281c-0.047,0.734-0.83,1.28-1.748,1.22c-0.917-0.06-1.622-0.703-1.574-1.437
				c0.048-0.733,0.83-1.28,1.748-1.22C653.252,160.905,653.957,161.548,653.909,162.281z"/>
			<g>
				<path style="fill:#0E3944;" d="M665.433,154.563c-0.095,0-0.19-0.037-0.26-0.111c-0.999-1.047-2.747-1.002-2.773-1.002
					c-0.195,0.001-0.365-0.15-0.371-0.349c-0.007-0.199,0.149-0.365,0.348-0.371c0.077-0.005,2.099-0.052,3.316,1.225
					c0.137,0.144,0.132,0.372-0.011,0.509C665.612,154.531,665.522,154.563,665.433,154.563z"/>
			</g>
			<g>
				<path style="fill:#0E3944;" d="M651.867,154.563c-0.089,0-0.178-0.032-0.248-0.099c-0.144-0.137-0.149-0.365-0.013-0.509
					c1.218-1.278,3.237-1.229,3.316-1.225c0.199,0.007,0.354,0.173,0.348,0.371c-0.006,0.199-0.18,0.352-0.371,0.349
					c-0.013-0.003-1.784-0.036-2.771,1.002C652.056,154.526,651.962,154.563,651.867,154.563z"/>
			</g>
			<path style="fill:#1A4850;" d="M664.811,158.386c0,0.895-0.403,1.62-0.9,1.62c-0.497,0-0.9-0.726-0.9-1.62
				c0-0.895,0.403-1.62,0.9-1.62C664.408,156.766,664.811,157.491,664.811,158.386z"/>
			<path style="fill:#1A4850;" d="M655.189,158.386c0,0.895-0.403,1.62-0.9,1.62c-0.497,0-0.9-0.725-0.9-1.62
				c0-0.895,0.403-1.62,0.9-1.62C654.786,156.766,655.189,157.491,655.189,158.386z"/>
			<path style="fill:#1A4850;" d="M655.189,167.959c0,0,6.354,0.818,9.622-0.751c0,0-1.848,4.326-5.318,3.938
				C656.023,170.758,655.189,167.959,655.189,167.959z"/>
			<g>
				<path style="fill:#DB614D;" d="M660.398,165.695c-0.7,0.001-1.411-0.181-1.626-0.241l0.204-0.737
					c0.756,0.209,1.942,0.333,2.201,0.028c0.089-0.106,0.054-0.352-0.099-0.675c-1.041-2.215-1.258-7.822-1.267-8.059l0.766-0.028
					c0.002,0.057,0.219,5.688,1.194,7.761c0.298,0.632,0.294,1.135-0.009,1.495C661.466,165.589,660.935,165.695,660.398,165.695z"
					/>
			</g>
			<path style="fill:#0E3944;" d="M648.11,162.249c0,0,0.275-3.863,0.892-6.266c0,0-1.075-5.013,1.779-7.783
				c0,0,4.195,0.605,8.712,0.605s7.596-0.605,7.596-0.605s2.171,1.943,1.921,7.024c0,0,1.014,3.451,1.88,6.949
				c0,0,5.87-20.993-12.63-20.993C639.51,141.181,648.11,162.249,648.11,162.249z"/>
		</g>
		<path style="fill:#8B383E;" d="M674.538,179.307c0,0-3.651,45.05-3.423,50.566c0.228,5.516,7.228,93.183,7.228,93.183s10,1,19,0
			c0,0-3.667-50.409-4.667-60.704c-1-10.296-1.333-12.356-1.333-12.356l1.333-16.607v-48.155
			C692.676,185.234,679.93,178.632,674.538,179.307z"/>
		<path style="fill:#662C33;" d="M671.6,218.895c0,0,6.743-31.387,9.41-33.78c2.667-2.393,6.163-1.958,6.667-3.81
			c0.708-2.604-5.743-6.83-8.038-7.206c-2.295-0.376-7.864,1.575-7.864,1.575S668.524,196.735,671.6,218.895z"/>
		<path style="fill:#8B383E;" d="M644.431,175.62c0,0-7.755,16.323-7.755,25.712s-3,115.723-3,115.723h-7.333
			c0,0-5.187-99.537,1.74-141.436H644.431z"/>
		<path style="fill:#662C33;" d="M636.469,212.52c0,0-2.07-20.745-2.015-22.105c0.055-1.36,2.889-12.768,2.889-12.768l-4.333-2.027
			c0,0,2.833-4.501,5.5-4.449c2.667,0.051,9.318,1.374,10.492,2.88C650.176,175.556,640.762,181.484,636.469,212.52z"/>
		<path style="fill:#662C33;" d="M692.676,185.234c0,0,12.333,16.676,12.333,18.499c0,1.823,0,1.823,0,1.823s13,33.267,13,35.134
			c0,1.866-14.333,33.451-16.667,33.033c-2.333-0.418-6.682,13.263-6.682,13.263s-2.31-13.453-4.731-18.441l5.079-9.322l0.333-3.992
			l8.627-14.21l-13.26-26.477C688.676,195.389,692.676,185.234,692.676,185.234z"/>
		<path style="fill:#0E3944;" d="M658.01,139.845c3.1-0.207,9.097-0.749,14.242,2.793c5.145,3.542-2.991,9.485-9.242,9.076
			c0,0,0.976-0.034,1.8-1.284c0,0-4.993,2.068-10.522,1.284c0,0,3.687-0.159,5.204-0.909c0,0-7.297-0.266-11.622-0.75
			C645.635,149.806,641.186,140.97,658.01,139.845z"/>
		<path style="fill:#0D527C;" d="M654.776,175.674c0,0,2.794,2.743,10.139,0c0,0,1.377-0.882,2.173,0
			c0.796,0.882,2.296,5.632,2.296,5.632s-4.852,8.125-10.613,7.25c-5.762-0.875-8.012-8.733-8.012-8.733
			S652.364,174.629,654.776,175.674z"/>
	</g>
	<g>
		<path style="fill:#4C1E27;" d="M192.81,321.543c8.535-3.833,69.535,12,69.535,12s-15.942-69.853-13.805-96.503
			c2.138-26.65-43.717-14.672-43.717-14.672L192.81,321.543z"/>
		<g>
			<path style="fill:#CFD8DC;" d="M241.005,348.776c0,0,8.48,20.6-3.21,66.47h-6.91c0,0-2.13-60.14-3.55-66.47
				c-1.11-5-3.21-22.12-3.9-36.73v-0.06c-0.06-1.37-0.11-2.71-0.15-4.02c-0.39,0.09-0.8,0.14-1.22,0.18
				c-0.34,0.02-0.68,0.03-1.04,0.01c-0.07,0-0.15-0.01-0.23-0.01c0.43,6.36,0.6,13.5,0.6,20.08c0,9.29-0.34,17.44-0.74,20.62
				c-0.81,6.3,3.56,66.52,3.56,66.52l-6.93-0.23c-16.12-46.34-10.32-66.75-10.32-66.75s-14.74-41.71-11.43-56.43
				c3.3-14.71,11.02-25.61,11.02-25.61l12.87,2.1l0.11-0.23l1.04,0.2h0.15v0.03l13.31,2.62c0,0,3.05,5.06,6.5,13.12
				c0.16,0.39,0.33,0.78,0.5,1.18c1.36,3.28,2.77,7.01,4.06,11.06C249.824,311.266,241.005,348.776,241.005,348.776z"/>
			<g>
				<path style="fill:#B5C4C9;" d="M220.204,300.916c0.47,2.38,1.08,4.81,1.86,7.23c-0.34,0.02-0.68,0.03-1.04,0.01
					c-5.35-17.01-2.72-34.28-2.68-34.46l0.98,0.16c-0.02,0.15-1.86,12.25,0.69,26.08c0.29-0.09,0.66-0.27,0.98-0.68
					c0.51-0.66,0.96-2.09,0.18-5.12c-1.69-6.57-0.12-19.5-0.05-20.04l0.99,0.12c-0.01,0.13-1.61,13.29,0.03,19.67
					c0.71,2.76,0.58,4.78-0.38,6.01C221.264,300.526,220.655,300.796,220.204,300.916z"/>
				<path style="fill:#B5C4C9;" d="M241.035,285.366c-7.76-1.78-11.76-10.97-11.93-11.39l0.92-0.4c0.04,0.1,3.7,8.51,10.51,10.61
					C240.694,284.576,240.865,284.966,241.035,285.366z"/>
			</g>
		</g>
		<path style="fill:#0C476B;" d="M231.675,176.202c12.437,1.722,15.919,11.124,15.669,19.739c-0.25,8.615-1.25,54.055-1.25,54.055
			s-23.523,7.358-31.386-11.416c-7.864-18.774-8.739-29.265-3.502-35.838c1.071-1.344,1.661-5.404,2.264-10.657
			C214.692,181.427,220.568,174.664,231.675,176.202z"/>
		<path style="fill:#4C1E27;" d="M267.011,290.391c0.167,4.998-3.59,17.902-4.667,15.668
			C258.749,298.602,267.011,290.391,267.011,290.391z"/>
		<path style="fill:#4C1E27;" d="M175.011,249.996c-0.667-2.44,7.356-14.839,9.595-13.128c0,0-0.761,18.021-3.261,18.521
			S175.011,249.996,175.011,249.996z"/>
		<path style="fill:#662C33;" d="M202.831,210.98l-23.359,43.974c0,0,0.623,8.631,4.873,9.601c4.25,0.97,20.875-16.5,20.875-16.5
			L202.831,210.98z"/>
		<path style="fill:#FF8B66;" d="M253.473,282.562c1.969,6.983,12.244,23.072,18.603,29.142l3.281-2.774
			c0,0-9.565-18.638-10.834-25.498c-1.269-6.861-4.631-10.816-9.424-10.587C250.307,273.074,253.059,281.093,253.473,282.562z"/>
		<path style="fill:#FF8B66;" d="M178.434,252.086c-2.378-6.855-3.15-25.929-1.406-34.545l4.278,0.399
			c0,0,2.812,20.759,5.695,27.113c2.883,6.354,2.386,11.521-1.676,14.074C181.263,261.68,178.935,253.528,178.434,252.086z"/>
		<path style="fill:#662C33;" d="M252.312,217.837c0,0,5.292,15.719,6.079,42.552c0,0,1.287,1.333,1.12,2.333
			c-0.167,1,1.333,3.108,1,3.554c-0.333,0.446,6.5,24.114,6.5,24.114s-5.667,5.332-4.667,15.668l-11.333-23.503
			C251.011,282.556,247.613,223.784,252.312,217.837z"/>
		<path style="fill:#662C33;" d="M205.22,271.431c0,0,3.605,4.114,13.615,5.182c10.01,1.068,16.208-3.035,15.609-5.796
			c-0.599-2.761-27.447-3.2-27.447-3.2L205.22,271.431z"/>
		<path style="fill:#FF8B66;" d="M233.595,271.557c0,0-14.67,5.17-28.51-5.28c0,0-2.57-52.83,2.32-56.37
			c2.14-1.55,6.36-0.31,10.43,1.58c5.25,2.44,10.27,5.95,10.27,5.95s9.11-1.29,16.29-0.5c4.57,0.49,8.35,1.83,8.52,4.86
			C253.365,229.607,233.595,271.557,233.595,271.557z"/>
		<path style="fill:#EF6E4B;" d="M244.785,217.057c-3.08-0.32-3.65,2.01-6.73,3.13c-3.09,1.13-6.79,2-8.19,2.13
			c-1.4,0.13-2.14,1.87-2.14,1.87s-0.5-2.35-1.26-2.55c-0.74-0.19-7.27-6.76-8.63-10.15c5.25,2.44,10.27,5.95,10.27,5.95
			s9.11-1.29,16.29-0.5C244.645,217.017,244.785,217.057,244.785,217.057z"/>
		<path style="fill:#EF6E4B;" d="M226.927,199.962c0,0,1.168,14.105-2.757,16.122c0,0,2.9,5.346,10.674,2.092
			c0,0-1.314-7.255,3.828-15.868C242.116,196.54,226.927,199.962,226.927,199.962z"/>
		<g>
			<path style="fill:#FF8B66;" d="M241.094,195.119c0,0,2.92-3.393,3.589,0.263c0.775,4.236-2.972,6.252-3.834,4.951
				C239.989,199.033,241.094,195.119,241.094,195.119z"/>
			<path style="fill:#FF8B66;" d="M218.985,197.026c0,0-3.4-2.912-3.508,0.803c-0.125,4.305,3.885,5.73,4.539,4.314
				C220.671,200.727,218.985,197.026,218.985,197.026z"/>
			<path style="fill:#FF8B66;" d="M231.542,211.405c7.011-0.534,10.619-5.415,9.573-19.15c-0.54-7.085-4.475-11.156-12.328-10.558
				c-7.853,0.598-10.829,5.195-10.29,12.28C219.622,208.736,224.3,211.956,231.542,211.405z"/>
			<path style="fill:#DB614D;" d="M221.193,198.699c-0.069,0.714,0.598,1.363,1.491,1.45c0.893,0.086,1.673-0.422,1.742-1.136
				c0.069-0.714-0.599-1.363-1.492-1.45C222.042,197.477,221.262,197.985,221.193,198.699z"/>
			<path style="fill:#DB614D;" d="M235.642,197.985c0.101,0.71,0.903,1.184,1.791,1.058c0.888-0.126,1.527-0.804,1.426-1.515
				c-0.101-0.71-0.903-1.184-1.791-1.058C236.18,196.597,235.541,197.275,235.642,197.985z"/>
			<g>
				<path style="fill:#0C476B;" d="M223.682,191.297c0.143,0.067,0.317,0.031,0.421-0.096c0.893-1.092,2.606-1.18,2.623-1.18
					c0.194-0.009,0.344-0.173,0.336-0.367c-0.008-0.193-0.171-0.344-0.367-0.336c-0.083,0.004-2.047,0.106-3.136,1.439
					c-0.123,0.15-0.1,0.371,0.05,0.494C223.631,191.269,223.656,191.285,223.682,191.297z"/>
			</g>
			<g>
				<path style="fill:#0C476B;" d="M233.838,189.433c0.056,0.026,0.119,0.038,0.185,0.031c0.017-0.002,1.726-0.172,2.772,0.77
					c0.145,0.131,0.367,0.118,0.496-0.026c0.129-0.144,0.118-0.366-0.026-0.496c-1.279-1.154-3.235-0.956-3.318-0.947
					c-0.193,0.021-0.331,0.194-0.311,0.387C233.65,189.279,233.73,189.383,233.838,189.433z"/>
			</g>
			<path style="fill:#1A4850;" d="M224.745,195.002c0.067,0.871,0.512,1.547,0.996,1.51c0.484-0.037,0.822-0.772,0.756-1.643
				c-0.066-0.871-0.512-1.547-0.996-1.51C225.018,193.396,224.679,194.131,224.745,195.002z"/>
			<path style="fill:#1A4850;" d="M234.633,194.29c0.066,0.871,0.512,1.547,0.996,1.509c0.484-0.037,0.822-0.772,0.756-1.643
				c-0.066-0.871-0.512-1.547-0.996-1.51C234.905,192.683,234.566,193.419,234.633,194.29z"/>
			<path style="fill:#1A4850;" d="M233.87,202.799c0,0-4.32,0.943-6.656-0.058c0,0,1.517,3.137,3.88,2.665
				C233.456,204.935,233.87,202.799,233.87,202.799z"/>
			<path style="fill:#1A4850;" d="M227.069,194.391c0,0-0.802-2.096-1.633-1.878c-0.831,0.218-1.329,2.104-1.329,2.104l-1.295-0.565
				l1.257,0.068c0,0,0.502-1.965,1.335-2.032C226.59,191.992,227.069,194.391,227.069,194.391z"/>
			<path style="fill:#1A4850;" d="M233.897,194.135c0,0,0.475-2.193,1.329-2.103c0.854,0.09,1.632,1.878,1.632,1.878l1.195-0.754
				l-1.232,0.257c0,0-0.794-1.866-1.627-1.807C234.007,191.691,233.897,194.135,233.897,194.135z"/>
			<g>
				<path style="fill:#DB614D;" d="M230.073,199.485c0.154,0.072,0.325,0.127,0.51,0.162l0.142-0.745
					c-0.634-0.121-0.8-0.495-0.826-0.787c-0.038-0.412,0.184-0.818,0.407-0.905c0.131-0.05,0.276,0.029,0.435,0.237l0.603-0.46
					c-0.528-0.692-1.094-0.569-1.313-0.483c-0.563,0.22-0.952,0.958-0.886,1.68C229.198,198.772,229.535,199.233,230.073,199.485z"
					/>
			</g>
			<path style="fill:#0C476B;" d="M229.865,182.719c0,0-8.52,15.323-13.016,13.23c0,0-1.195-16.394,11.817-16.394
				c13.012,0,15.589,7.325,15.551,14.579c0,0-1.818,2.683-3.428,2.302C240.788,196.437,242.808,183.027,229.865,182.719z"/>
		</g>
		<g>
			<path style="fill:#FF8B66;" d="M283.044,311.545c-5.397-0.661-5.905-5.242-10.348-4.023c-0.917,0.252-1.473,0.78-1.807,1.373
				c-0.638,1.133-0.449,2.543,0.303,3.604c1.727,2.437,3.377,6.007,4.051,7.875c0.781,2.134,1.277,1.089,1.277,1.089
				c0.056,0.204,0.098,0.399,0.14,0.595c0.338,1.484,0.364,2.629,1.154,1.732c0.898-1.006,0.133-5.263,0.133-5.263
				c2.562,5.814,1.47,7.08,2.372,6.257c1.235-1.122-0.223-6.478-0.267-6.639c2.123,3.206,2.364,5.303,2.947,4.28
				c0.59-1.037-2.404-7.169-3.538-9.414c-0.254-0.506-0.42-0.817-0.42-0.817C283.403,313.023,283.044,311.545,283.044,311.545z"/>
			<path style="fill:#EF6E4B;" d="M279.462,313.011c-0.254-0.506-0.42-0.817-0.42-0.817s-1.73,0.659-3.552-0.902
				C275.491,311.291,276.56,313.761,279.462,313.011z"/>
			<path style="fill:#EF6E4B;" d="M275.595,317.042c0.173,0.505,1.195,3.391,0.925,4.42c0.056,0.204,0.098,0.399,0.14,0.595
				C277.709,321.516,275.883,317.631,275.595,317.042z"/>
		</g>
		<path style="fill:#FFB878;" d="M252.925,227.596c-1.83,10.96-7.68,51.71-32.76,46.46c-0.11-0.02-0.23-0.05-0.34-0.07
			c-0.34-0.07-0.67-0.14-0.99-0.21c-23.48-5.06-16.49-7.5-16.49-7.5s-9.535-58.72,9.24-56.92c0,0,13.81,17.29,14.12,24.17
			c0.03,0.38,0,0.74-0.07,1.05c0.06-0.19,0.37-1.02,1.52-2.49c2.15-2.74,7.29-7.72,19.36-14.84
			C246.514,217.246,254.755,216.626,252.925,227.596z"/>
		<path style="fill:#8B383E;" d="M244.785,216.056c0,0-7.589,23.419-7.534,39.419s21.14,81.068,21.14,81.068s2.454-1,3.954-3
			c0,0-9.345-70.987-9.422-78.487s1.61-32.798-0.61-37.219C252.312,217.837,251.223,216.424,244.785,216.056z"/>
		<path style="fill:#8B383E;" d="M213.978,209.951c0,0,0.75,28.558,0,34.362c-0.75,5.805-6.614,38.042-9.844,49.076
			c-3.23,11.034-7.289,33.654-7.289,33.654l-4.035-5.5c0,0-2.535-22.237,0-33.487c2.535-11.25,5.453-19.308,5.744-21.779
			c0.291-2.471-1.737-38.621,4.277-55.296C202.831,210.98,208.078,207.409,213.978,209.951z"/>
		<g>
			<path style="fill:#F2A668;" d="M227.155,232.086c-0.42,1.87-1.37,4.07-2.35,6.37c-1.18,2.74-2.4,5.57-2.69,7.83
				c-0.16,1.3-0.15,3.3-0.14,5.83c0.02,5.79,0.06,14.23-2.15,21.87c-0.34-0.07-0.67-0.14-0.99-0.21c2.19-7.52,2.16-15.91,2.14-21.66
				c-0.01-2.56-0.02-4.59,0.15-5.96c0.31-2.39,1.55-5.29,2.76-8.1c0.68-1.59,1.35-3.14,1.82-4.53c0.03,0.38,0,0.74-0.07,1.05
				C225.695,234.386,226.005,233.556,227.155,232.086z"/>
		</g>
		<path style="fill:#662C33;" d="M184.606,236.868c0,0-6.095,16.734-9.595,13.128c0,0,4.333,13.893,9.333,14.56
			c5,0.667,7.339-19.333,7.339-19.333s-4.339-7.285-4.839-6.643c-0.5,0.643-0.667,2.227-0.667,2.227L184.606,236.868z"/>
		<path style="fill:#662C33;" d="M220.581,276.786c4.264,1.645,10.514,21.589,9.889,36.367c0,0,0.125,1.597,1.625,0
			c0,0-2.44-35.901-11.408-38.999L220.581,276.786z"/>
		<path style="fill:#4C1E27;" d="M221.623,274.154c0,0,0.576,3.527-2.789,3.277c-3.365-0.25-3.616-2.87-2.116-4.122
			C218.22,272.056,221.623,274.154,221.623,274.154z"/>
		<path style="fill:#0C476B;" d="M212.595,202.222c-4.688,4.083-5,8.674-0.25,17.004c4.75,8.329,3.75,18.561,3.75,18.561
			s9.48-9.382,2.74-26.807L212.595,202.222z"/>
		<g>
			<path style="fill:#4C1E27;" d="M214.994,413.569c0,0,2.315,5.138,1.601,8.583c-0.431,2.08-2.667,4.75-0.875,8.083h14.049
				c0,0,1.628-3.75-1.671-7.25c-1.824-1.935-3.17-10.917-3.17-10.917c-1.57,0.25-1.167,1.5-1.167,1.5s0.048-4.235-3.5-3.667
				c-4.253,0.681-3.25,4.417-3.25,4.417S216.514,412.955,214.994,413.569z"/>
			<path style="fill:#662C33;" d="M216.272,425.069c0,0,3.833-4.977,11.667-1c0,0,0.333,3.5-3.333,2.833
				C220.939,426.236,218.772,428.902,216.272,425.069z"/>
		</g>
		<g>
			<path style="fill:#4C1E27;" d="M239.176,413.569c0,0-1.01,5.732,0.401,7.583c1.643,2.154,9.893,2.404,5.878,9.084h-14.049
				c0,0-2.163-1.43-1.33-7.25c0.716-5.005-0.833-10.917-0.833-10.917c1.57,0.25,2.167,1.5,2.167,1.5s-0.048-4.235,3.5-3.667
				c4.253,0.681,3.25,4.417,3.25,4.417S238.606,413.418,239.176,413.569z"/>
			<path style="fill:#662C33;" d="M233.227,425.069c0,0,4.666-4.596,12.034-0.209c0,0-0.034,2.709-3.701,2.042
				C237.894,426.236,235.727,428.902,233.227,425.069z"/>
		</g>
		<g>
			<path style="fill:#FF8B66;" d="M186.552,209.166c0,0,0,0-2.26,5.07c-2.25,5.08-2.95,4.42-5.87,5.09
				c-2.73,0.63-4.43-4.23-4.58-6.42c-0.14-1.85-3.1-5.52-2.8-7.08c0.12-0.63,0.53-0.26,1.31,1.01c0.92,1.49,2.27,2.54,2.27,2.54
				c0.97-1.69-2.89-6.75-1.58-8.4c0.64-0.8,2.42,6.62,3.59,6.84c0,0,0.41-0.58-0.17-4.29c-0.33-2.13-0.69-4.32-0.12-4.73
				c1.04-0.74,0.96,3.84,2.81,8.7c0,0,0.05-2.35-0.05-4.53c-0.1-1.99-0.4-3.84,0.49-3.8c0.73,0.03,0.8,3.14,0.92,5.12
				c0.23,3.69,1.2,6.34,1.8,7.67c0.28,0.64,0.49,0.97,0.49,0.97C185.532,207.946,186.552,209.166,186.552,209.166z"/>
			<path style="fill:#EF6E4B;" d="M182.802,212.926c0,0-2.33,0.75-2.96,2.51c0,0-0.5-2.79,2.47-3.48
				C182.592,212.596,182.802,212.926,182.802,212.926z"/>
		</g>
	</g>
	<g>
		<path style="fill:#FF8B66;" d="M518.955,225.663c-6.845,9.583-0.029,22.029,0.642,47.973c0,0-3.008,13.527-4.836,25.736
			c-1.827,12.208-4.494,23.369-4.494,23.369l4.665,2.544c0,0,13.372-34.411,15.02-50.391l-2.607-42.773L518.955,225.663z"/>
		<path style="fill:#CE364C;" d="M518.328,184.572c7.897-11.551,25.628-8.829,31.181-0.551c6.716,10.011,1.251,31.857,1.251,31.857
			s-19.117-11.279-30.651,7.369C520.109,223.246,509.495,197.491,518.328,184.572z"/>
		<path style="fill:#EF6E4B;" d="M539.752,203.057c0,0,0.084,8.55,4.183,15.812c0,0-2.411,5.584-10.445,3.036
			c0,0,0.661-7.343-5.228-15.463C524.318,201.004,539.752,203.057,539.752,203.057z"/>
		<g>
			<path style="fill:#FF8B66;" d="M523.071,198.878c0,0-3.51-2.779-3.475,0.938c0.041,4.306,4.102,5.576,4.702,4.135
				C524.898,202.511,523.071,198.878,523.071,198.878z"/>
			<path style="fill:#FF8B66;" d="M545.141,196.563c0,0,2.787-3.503,3.597,0.124c0.938,4.203-2.729,6.362-3.64,5.095
				C544.187,200.516,545.141,196.563,545.141,196.563z"/>
			<path style="fill:#FF8B66;" d="M535.535,213.059c-6.985,0.804-11.453-3.305-13.027-16.99
				c-0.812-7.059,2.281-11.802,10.105-12.702c7.824-0.9,11.617,3.05,12.43,10.109C546.734,208.181,542.751,212.229,535.535,213.059z
				"/>
			<path style="fill:#DB614D;" d="M543.291,198.623c0.203,0.688-0.33,1.452-1.19,1.706c-0.86,0.254-1.723-0.098-1.926-0.786
				c-0.203-0.688,0.33-1.452,1.19-1.706C542.225,197.584,543.087,197.935,543.291,198.623z"/>
			<path style="fill:#DB614D;" d="M528.967,200.659c0.036,0.717-0.662,1.333-1.558,1.378c-0.896,0.044-1.651-0.501-1.687-1.217
				c-0.035-0.717,0.662-1.334,1.558-1.378C528.177,199.397,528.932,199.942,528.967,200.659z"/>
			<g>
				<path style="fill:#CE364C;" d="M539.445,191.826c-0.127,0.092-0.305,0.091-0.431-0.015c-1.083-0.903-2.783-0.665-2.799-0.662
					c-0.192,0.028-0.371-0.105-0.399-0.296c-0.029-0.192,0.103-0.37,0.296-0.399c0.082-0.012,2.03-0.284,3.352,0.818
					c0.149,0.124,0.169,0.346,0.045,0.495C539.489,191.79,539.467,191.809,539.445,191.826z"/>
			</g>
			<g>
				<path style="fill:#CE364C;" d="M529.119,191.92c-0.05,0.036-0.11,0.06-0.176,0.066c-0.017,0.001-1.727,0.158-2.576,1.282
					c-0.117,0.156-0.338,0.186-0.492,0.068c-0.154-0.117-0.185-0.337-0.068-0.492c1.037-1.376,2.995-1.551,3.078-1.558
					c0.193-0.016,0.362,0.127,0.379,0.321C529.274,191.733,529.216,191.85,529.119,191.92z"/>
			</g>
			<path style="fill:#1A4850;" d="M539.102,195.666c0.1,0.868-0.21,1.616-0.692,1.671c-0.482,0.055-0.954-0.603-1.054-1.47
				c-0.1-0.868,0.21-1.616,0.692-1.671C538.531,194.14,539.002,194.798,539.102,195.666z"/>
			<path style="fill:#1A4850;" d="M529.365,196.787c0.1,0.867-0.21,1.616-0.692,1.671c-0.482,0.056-0.953-0.602-1.053-1.47
				c-0.1-0.868,0.21-1.616,0.692-1.671C528.793,195.261,529.265,195.919,529.365,196.787z"/>
			<path style="fill:#1A4850;" d="M531.62,205.05c0,0,4.421,0.108,6.524-1.318c0,0-0.895,3.367-3.304,3.351
				C532.43,207.069,531.62,205.05,531.62,205.05z"/>
			<path style="fill:#1A4850;" d="M536.704,195.506c0,0,0.391-2.21,1.247-2.153c0.857,0.057,1.704,1.814,1.704,1.814l1.164-0.8
				l-1.221,0.305c0,0-0.866-1.835-1.696-1.743C536.721,193.059,536.704,195.506,536.704,195.506z"/>
			<path style="fill:#1A4850;" d="M529.952,196.548c0,0-0.882-2.063-1.704-1.813c-0.822,0.25-1.247,2.153-1.247,2.153l-1.316-0.514
				l1.259,0.019c0,0,0.426-1.983,1.255-2.082C529.38,194.169,529.952,196.548,529.952,196.548z"/>
			<g>
				<path style="fill:#DB614D;" d="M534.72,201.077c-0.138,0.1-0.295,0.186-0.471,0.256l-0.281-0.705
					c0.6-0.239,0.692-0.637,0.662-0.929c-0.041-0.412-0.335-0.768-0.571-0.811c-0.138-0.025-0.265,0.081-0.382,0.315l-0.679-0.338
					c0.387-0.78,0.966-0.766,1.198-0.723c0.595,0.109,1.117,0.76,1.188,1.482C535.444,200.211,535.2,200.728,534.72,201.077z"/>
			</g>
			<path style="fill:#CE364C;" d="M534.882,184.498c0,0-9.644,2.742-10.463,14.912c-0.819,12.169-7.448,13.746-7.448,13.746
				s-9.617-40.264,18.423-36.254c0,0,5.978-0.705,10.926,5.011c4.949,5.716-0.941,17.497-0.941,17.497s-0.442-5.471-1.444-6.484
				C543.935,192.925,538.331,190.917,534.882,184.498z"/>
		</g>
		<path style="fill:#FF8B66;" d="M574.652,291.282c-4.26-14.754-12.687-25.689-12.687-25.689l-12.726,2.11l-0.128-0.231
			l-1.031,0.206l-0.148-0.003l0.003,0.032l-13.141,2.627c0,0-5.656,10.533-9.417,25.422c-3.761,14.889,7.49,52.499,7.49,52.499
			s-6.334,17.647,8.333,63.647h6.91c0,0-2.576-57.295-1.576-63.647c0.862-5.479,1.971-25.554,1.405-40.924
			c0.797,0.171,1.632,0.241,2.504,0.182l0,0c-0.046,15.375,1.735,35.37,2.781,40.812c1.213,6.315,0.566,63.698,0.566,63.698
			l6.906-0.232c13.111-46.467,6.187-63.925,6.187-63.925S578.911,306.036,574.652,291.282z"/>
		<path style="fill:#8BBDDB;" d="M563.29,265.946c-13.85,10.45-28.52,5.28-28.52,5.28s-3.83-6.38-9.09-18.95
			c-3.38-2.73-4.11-6.7-4-9.95c-2.56-6.72-5.98-11.41-4.23-14.85c1.46-2.86,6.35-4.7,11.12-6.26c0.39-0.12,0.79-0.25,1.18-0.37
			c2.95-0.95,5.75-1.8,7.52-2.74c3.05-1.63,5.32-3.13,7.08-4.67c0.74-0.64,1.39-1.29,1.97-1.95c2.64-3.01,3.99-6.39,6.03-11.24
			c0.82-1.97,12.23-7.7,12.92,27.81c0.25,12.86-1.72,14.19-2.22,23.87C562.64,259.936,563.29,265.946,563.29,265.946z"/>
		<g>
			<path style="fill:#8BBDDB;" d="M563.798,417.656c-0.422-2.876,0.639-4.92-0.111-6.306c-1.161-2.145-2.387,0.566-2.387,0.566
				c-0.099-3.264-5.568-3.258-6.116-1.764c-0.146,0.399-0.313,0.759-0.485,1.102c-0.34-0.786-0.916-1.55-1.664-1.102
				c-2.923,1.75,0.711,6.267-1.948,9.559c-3.385,4.191-1.301,10.524-1.301,10.524h16.212
				C567.896,421.353,564.22,420.521,563.798,417.656z"/>
			<path style="fill:#CFD8DC;" d="M553.785,416.583c0,0,3.833-2.014,8.917,0.652l-1-1.833c0,0-3.367-2.099-7.45-0.533
				L553.785,416.583z"/>
			<path style="fill:#CFD8DC;" d="M553.117,419.63c0,0,5.457-1.896,10.54,0.771l-0.955-1.943c0,0-4.833-2.092-8.917-0.526
				L553.117,419.63z"/>
		</g>
		<g>
			<path style="fill:#8BBDDB;" d="M537.883,417.656c0.422-2.876-0.64-4.92,0.111-6.306c1.161-2.145,2.387,0.566,2.387,0.566
				c0.098-3.264,5.568-3.258,6.116-1.764c0.146,0.399,0.313,0.759,0.485,1.102c0.34-0.786,0.916-1.55,1.664-1.102
				c2.923,1.75-0.711,6.267,1.948,9.559c3.385,4.191,1.301,10.524,1.301,10.524h-16.212
				C533.784,421.353,537.461,420.521,537.883,417.656z"/>
			<path style="fill:#CFD8DC;" d="M547.896,416.583c0,0-3.833-2.014-8.917,0.652l1-1.833c0,0,3.367-2.099,7.45-0.533
				L547.896,416.583z"/>
			<path style="fill:#CFD8DC;" d="M548.564,419.63c0,0-5.457-1.896-10.54,0.771l0.955-1.943c0,0,4.833-2.092,8.917-0.526
				L548.564,419.63z"/>
		</g>
		<g>
			<path style="fill:#FF8B66;" d="M503.582,326.255c5.302-1.203,5.344-5.812,9.888-5.049c0.938,0.158,1.545,0.627,1.937,1.183
				c0.749,1.063,0.704,2.484,0.063,3.616c-1.471,2.599-2.752,6.318-3.233,8.244c-0.561,2.202-1.161,1.212-1.161,1.212
				c-0.035,0.208-0.057,0.407-0.079,0.606c-0.186,1.511-0.096,2.652-0.973,1.84c-0.995-0.91-0.665-5.223-0.665-5.223
				c-1.96,6.043-0.746,7.192-1.727,6.465c-1.342-0.991-0.434-6.467-0.406-6.632c-1.788,3.404-1.816,5.516-2.499,4.556
				c-0.692-0.972,1.666-7.376,2.567-9.724c0.201-0.529,0.335-0.856,0.335-0.856C503.374,327.763,503.582,326.255,503.582,326.255z"
				/>
			<path style="fill:#EF6E4B;" d="M507.293,327.351c0.201-0.529,0.335-0.856,0.335-0.856s1.788,0.48,3.442-1.257
				C511.07,325.239,510.257,327.804,507.293,327.351z"/>
			<path style="fill:#EF6E4B;" d="M511.549,330.971c-0.121,0.52-0.846,3.494-0.473,4.491c-0.035,0.208-0.057,0.407-0.079,0.606
				C509.898,335.636,511.322,331.585,511.549,330.971z"/>
		</g>
		<path style="fill:#6197AD;" d="M551.087,419.711c0,0-3.25,4.083-1.936,10.524h2.744
			C551.895,430.236,552.527,424.447,551.087,419.711z"/>
		<g>
			<path style="fill:#FF8B66;" d="M553.046,130.602c0,0,0,0,1.625,5.308c1.614,5.316,2.389,4.747,5.205,5.768
				c2.633,0.958,4.913-3.658,5.329-5.813c0.365-1.819,3.75-5.101,3.643-6.686c-0.042-0.64-0.494-0.323-1.423,0.843
				c-1.095,1.367-2.563,2.244-2.563,2.244c-0.757-1.796,3.692-6.347,2.593-8.144c-0.538-0.872-3.209,6.275-4.397,6.351
				c0,0-0.336-0.626,0.692-4.237c0.587-2.074,1.212-4.203,0.696-4.68c-0.942-0.861-1.421,3.694-3.85,8.292
				c0,0,0.237-2.339,0.602-4.49c0.342-1.963,0.865-3.762-0.023-3.831c-0.728-0.059-1.177,3.019-1.538,4.97
				c-0.678,3.634-1.964,6.146-2.722,7.393c-0.356,0.601-0.605,0.903-0.605,0.903C554.207,129.515,553.046,130.602,553.046,130.602z"
				/>
			<path style="fill:#EF6E4B;" d="M556.309,134.791c0,0,2.221,1.029,2.632,2.852c0,0,0.837-2.708-2.027-3.755
				C556.558,134.489,556.309,134.791,556.309,134.791z"/>
		</g>
		<path style="fill:#FF8B66;" d="M557.433,138.264c0,0-3.922,26.25-5.297,36.447c-0.823,6.102,0.69,36.687,0.69,36.687
			s3.628,13.644,7.608,12.921c2.951-0.536,3.577-4.765,3.827-11.91s-4.113-22.965-3.533-30.659
			c1.158-15.361-0.029-22.611,1.408-41.986L557.433,138.264z"/>
		<g>
			<path style="fill:#105E99;" d="M576.95,332.256c-0.19,2.51-0.35,4.03-0.35,4.03s-19.26,11.46-24.71,2.21c0,0-0.89-0.29-1.78-5.63
				c-0.01-0.04-0.02-0.07-0.02-0.09c0-0.01,0-0.01,0-0.01c-0.43-2.55-0.86-6.23-1.19-11.54c0.06,1.44,0.44,7.73,0.31,12.84
				c-0.04,1.67-0.14,3.22-0.32,4.43c0,0-7.16,8.5-24.47-0.96c0,0-0.23-1.23-0.51-3.41c-0.87-6.82-2.21-22.94,1.57-39.72
				c1.77-7.88,4.68-15.9,9.29-23.18c0,0,1.19-0.02,3.11-0.13c1.91-0.11,4.56-0.3,7.5-0.65c0.82-0.1,1.65-0.2,2.5-0.32
				c3.12-0.45,6.43-1.07,9.46-1.93c2.18-0.61,4.22-1.36,5.95-2.25c0,0,7.31,9.24,11.35,21.04c0.81,2.38,1.5,4.87,1.96,7.4
				C578.7,305.906,577.6,324.206,576.95,332.256z"/>
			<path style="fill:#0D527C;" d="M574.64,286.986c-9.8-1.98-15-12.44-17.3-18.79c2.18-0.61,4.22-1.36,5.95-2.25
				C563.29,265.946,570.6,275.186,574.64,286.986z"/>
			<path style="fill:#0D527C;" d="M537.88,271.096c-1.52,4.76-4.09,12.73-5.28,16.23c-0.77,2.27-3.88,4.87-7.12,7.08
				c1.77-7.88,4.68-15.9,9.29-23.18C534.77,271.226,535.96,271.206,537.88,271.096z"/>
			<path style="fill:#0D527C;" d="M548.89,321.176c-3.22-14.25-3.53-39.72-3.51-50.73c0.82-0.1,1.65-0.2,2.5-0.32
				c3.26,23.71-0.74,22.32-0.74,22.32C546.69,300.906,548.78,320.096,548.89,321.176z"/>
			<path style="fill:#0D527C;" d="M549.21,334.066c-0.04,1.67-0.14,3.22-0.32,4.43c0,0-7.16,8.5-24.47-0.96c0,0-0.23-1.23-0.51-3.41
				c3.79,2.18,9.39,5,13.97,5.61C543.59,340.486,547.55,336.286,549.21,334.066z"/>
			<path style="fill:#0D527C;" d="M576.95,332.256c-0.19,2.51-0.35,4.03-0.35,4.03s-19.26,11.46-24.71,2.21c0,0-0.9-0.29-1.8-5.72
				c0.05,0.26,0.82,3.84,7.99,6.03C563.22,340.386,572.01,335.456,576.95,332.256z"/>
			<path style="fill:#105E99;" d="M563.52,267.296c-0.75,3.78-25.28,6.5-29.54,5.21c0,0-0.65-1.79-0.93-3.1
				c-0.14-0.67-0.19-1.21-0.01-1.32c0,0,14.89,1.24,29.99-5.93c0,0,0.31,0.34,0.53,1.16
				C563.77,264.126,563.89,265.406,563.52,267.296z"/>
			<path style="fill:#0C476B;" d="M563.52,267.296c-0.75,3.78-25.28,6.5-29.54,5.21c0,0-0.65-1.79-0.93-3.1
				c0,0,14.22,1.49,30.51-6.09C563.77,264.126,563.89,265.406,563.52,267.296z"/>
			<path style="fill:#8BBDDB;" d="M543.36,269.073c0,0,0.138,3.102,0.773,3.429c0.635,0.327,5.027-0.571,5.027-0.571
				s0.584-2.312,0-3.685L543.36,269.073z"/>
			<path style="fill:#105E99;" d="M553.85,265.946c0,0,1,2.05,1.167,5.55h1.417c0,0,0.167-3.972-0.917-5.903L553.85,265.946z"/>
			<path style="fill:#105E99;" d="M537.752,269.018l1.5,0.003c0,0,0.167,2.118,1.083,4.951h-1.292
				C539.044,273.973,537.169,272.064,537.752,269.018z"/>
		</g>
		<g>
			<path style="fill:#CFD8DC;" d="M546.32,211.486c-3.05,6.68-8.68,20.1-10.01,30.99l-0.15,1.18l-0.74-0.93
				c-0.42-0.54-9.57-12.17-6.85-21.51c0.39-0.12,0.79-0.25,1.18-0.37c-2.69,7.49,3.54,17.21,5.73,20.28
				c1.42-9.59,5.83-20.78,8.87-27.69C545.09,212.796,545.74,212.146,546.32,211.486z"/>
		</g>
		<ellipse style="fill:#CFD8DC;" cx="535.776" cy="244.412" rx="2.295" ry="3.5"/>
		<path style="fill:#0C476B;" d="M536.942,244.412c0,1.304-0.693,2.361-1.548,2.361c-0.855,0-1.548-1.057-1.548-2.361
			c0-1.304,0.693-2.361,1.548-2.361C536.249,242.051,536.942,243.109,536.942,244.412z"/>
	</g>
	<g>
		<path style="fill:#B72E48;" d="M482.259,265.056c-1.333,2-10-6.665-10-10.583c0,0,7.833-5.917,11.333-3.751
			C487.092,252.889,482.259,265.056,482.259,265.056z"/>
		<path style="fill:#FF8B66;" d="M476.624,247.722l-7.153,12l-7.212,4.167c0,0,1.487,7.203,4.833,8.947c3.346,1.743,6-9.613,6-9.613
			s10.667-7.775,15-16.638C492.426,237.722,476.624,247.722,476.624,247.722z"/>
		<path style="fill:#CE364C;" d="M461.428,208.148c0,0,28.998,18.688,35.831,24.381c0,0,2,3.417,0,9.388
			c-2,5.971-5.333,11.129-5.333,11.129s0.167,2.515-0.333,2.762s-2.167,0.914-2.167,1.414s-4.333,4.223-7.167,7.833
			c0,0-4.212-9.247-10-10.583l7.529-13.192c0,0-0.26-0.235-0.362-0.592c-0.164-0.575,0.362-1.967,0.362-1.967l-15.362-4.5
			L461.428,208.148z"/>
		<path style="fill:#B72E48;" d="M394.437,233.504c-2.678-0.574-9.428,7.61-9.553,13.08l9,4.832L394.437,233.504z"/>
		<path style="fill:#CE364C;" d="M413.136,218.895c-2.043,1.065-21.683,44.064-21.683,44.064s0.623,8.631,4.873,9.601
			c4.25,0.97,20.875-16.5,20.875-16.5S421.423,214.573,413.136,218.895z"/>
		<path style="fill:#FF8B66;" d="M390.416,260.091c-2.378-6.855-3.15-25.928-1.406-34.545l4.278,0.399
			c0,0,2.813,20.759,5.695,27.113c2.883,6.354,2.386,11.521-1.676,14.074C393.245,269.685,390.916,261.533,390.416,260.091z"/>
		<g>
			<path style="fill:#FF8B66;" d="M395.964,216.511c0,0,0,0-0.638,5.514c-0.626,5.521-1.491,5.1-4.077,6.614
				c-2.416,1.419-5.493-2.71-6.292-4.754c-0.688-1.723-4.611-4.339-4.791-5.917c-0.074-0.637,0.428-0.407,1.552,0.571
				c1.324,1.146,2.926,1.744,2.926,1.744c0.419-1.903-4.779-5.575-4.023-7.542c0.371-0.955,4.291,5.592,5.473,5.451
				c0,0,0.218-0.676-1.447-4.042c-0.953-1.934-1.952-3.915-1.531-4.477c0.771-1.017,2.066,3.376,5.286,7.46
				c0,0-0.656-2.257-1.404-4.307c-0.691-1.869-1.531-3.544-0.67-3.772c0.706-0.19,1.704,2.757,2.411,4.61
				c1.324,3.452,3.043,5.69,4.014,6.779c0.459,0.527,0.758,0.779,0.758,0.779C394.625,215.653,395.964,216.511,395.964,216.511z"/>
			<path style="fill:#EF6E4B;" d="M393.512,221.222c0,0-1.999,1.413-2.073,3.281c0,0-1.312-2.512,1.315-4.06
				C393.212,220.97,393.512,221.222,393.512,221.222z"/>
		</g>
		<path style="fill:#0E3944;" d="M436.921,171.982c-16.225-0.814-19.493,13.119-17.743,29.47c1.75,16.351-2.013,37.18-4.258,45.265
			c-2.245,8.086,1.005,15.225,1.005,15.225s-2-6.061,1.5-15.225c0,0-5.597,18.645,9.452,22.116
			c15.048,3.47,18.388-1.882,22.793-27.891C454.074,214.934,460.416,173.161,436.921,171.982z"/>
		<path style="fill:#B72E48;" d="M413.009,267.285c0.833,4.371,12.917,4.05,21.417-1.34s35.321-4.594,35.045-11.472
			c-0.276-6.878-36.309-28.018-36.309-28.018S410.259,252.849,413.009,267.285z"/>
		<g>
			<g>
				<path style="fill:#FF8B66;" d="M409.525,410.935l6.73,1.57c0,0,10.52-56.38,12.94-62.34c2.08-5.14,10.97-24.8,13.92-39.9
					c0.14,0.07,1.06-0.09,2.31-0.33h0.01c0.31-0.07,0.64-0.14,0.99-0.21c0.31-0.07,0.64-0.14,0.97-0.21
					c0.25,15.05,3.52,33.61,4.52,38.81c1.21,6.31,0.56,63.7,0.56,63.7l6.91-0.23c13.11-46.47,6.19-63.93,6.19-63.93
					s12.02-41.83,7.76-56.58c-1.41-4.92-3.15-9.38-4.83-13.13c-0.14-0.31-0.27-0.61-0.42-0.9c-3.2-6.98-6.11-11.31-6.11-11.31
					l-14.05,1.76l-0.13-0.23l-0.41,0.08v4.41l-1.78-0.09l-0.4-0.03h-0.01l-5.83-0.31l-0.8-0.04l-5.1-0.27c0,0-3.06,4.87-7.42,12.7
					c-0.16,0.3-0.33,0.6-0.49,0.9c-1.55,2.81-3.25,5.97-5.03,9.4c-7.05,13.65-4.64,52.83-4.64,52.83
					S405.705,362.806,409.525,410.935z"/>
			</g>
			<g>
				<path style="fill:#6097B2;" d="M457.345,267.565c0.05,0.1,3.67,8.71,11.16,10.59c-0.14-0.31-0.27-0.61-0.42-0.9
					c-6.72-2.09-10-9.88-10.04-9.97L457.345,267.565z"/>
			</g>
			<g>
				<path style="fill:#6097B2;" d="M425.555,284.826c8.39-1.8,12.67-10.58,13.81-13.29c0.2-0.49,0.3-0.78,0.31-0.8l-0.71-0.25
					c-0.01,0.02-0.14,0.4-0.4,1.01c-1.2,2.78-5.13,10.47-12.52,12.43C425.885,284.225,425.715,284.526,425.555,284.826z"/>
			</g>
			<g>
				<path style="fill:#6097B2;" d="M445.435,309.935c0.31-0.07,0.64-0.14,0.99-0.21c1.22-2.25,3.44-7.09,5.26-15.16
					c2.62-11.62-3.34-24-3.4-24.12l-0.68,0.33c0.06,0.12,5.91,12.27,3.35,23.63c-0.11,0.48-0.22,0.95-0.33,1.4
					c-0.06,0.25-0.12,0.49-0.18,0.73C448.585,303.926,446.415,308.216,445.435,309.935z"/>
			</g>
			<g>
				<path style="fill:#6097B2;" d="M450.829,296.575c0.036,0,0.072-0.001,0.109-0.004l-0.047-0.748
					c-0.403,0.021-0.862-0.201-1.23-0.62c-0.497-0.567-1.562-2.363-0.703-6.772c1.153-5.92-3.23-16.29-3.418-16.729l-0.689,0.294
					c0.045,0.105,4.48,10.598,3.371,16.293c-0.889,4.563,0.167,6.601,0.876,7.408C449.59,296.26,450.215,296.575,450.829,296.575z"
					/>
			</g>
		</g>
		<path style="fill:#FF8B66;" d="M433.464,271.225c0,0,14.67,5.17,28.51-5.28c0,0,2.57-52.83-2.32-56.37
			c-2.14-1.55-6.36-0.31-10.43,1.58c-5.25,2.44-10.27,5.95-10.27,5.95s-9.11-1.29-16.29-0.5c-4.57,0.49-8.35,1.83-8.52,4.86
			C413.694,229.275,433.464,271.225,433.464,271.225z"/>
		<path style="fill:#EF6E4B;" d="M422.274,216.725c3.08-0.32,3.65,2.01,6.73,3.13c3.09,1.13,6.79,2,8.19,2.13
			c1.4,0.13,2.14,1.87,2.14,1.87s0.5-2.35,1.26-2.55c0.74-0.19,7.27-6.76,8.63-10.15c-5.25,2.44-10.27,5.95-10.27,5.95
			s-9.11-1.29-16.29-0.5C422.414,216.686,422.274,216.725,422.274,216.725z"/>
		<g>
			<path style="fill:#F24052;" d="M462.486,417.656c-0.422-2.876,0.64-4.92-0.111-6.306c-1.161-2.145-2.387,0.566-2.387,0.566
				c-0.098-3.264-5.568-3.258-6.116-1.764c-0.146,0.399-0.313,0.759-0.485,1.102c-0.34-0.786-0.916-1.55-1.664-1.102
				c-2.923,1.75,0.711,6.267-1.948,9.559c-3.385,4.191-1.301,10.524-1.301,10.524h16.212
				C466.584,421.353,462.908,420.521,462.486,417.656z"/>
			<path style="fill:#ADBEC4;" d="M452.473,416.583c0,0,3.833-2.014,8.917,0.652l-1-1.833c0,0-3.367-2.099-7.45-0.533
				L452.473,416.583z"/>
			<path style="fill:#ADBEC4;" d="M451.805,419.63c0,0,5.457-1.896,10.54,0.771l-0.955-1.943c0,0-4.833-2.092-8.917-0.526
				L451.805,419.63z"/>
		</g>
		<g>
			<path style="fill:#F24052;" d="M406.552,417.656c0.422-2.876-0.64-4.92,0.111-6.306c1.161-2.145,2.387,0.566,2.387,0.566
				c0.099-3.264,5.568-3.258,6.116-1.764c0.146,0.399,0.313,0.759,0.485,1.102c0.34-0.786,0.916-1.55,1.664-1.102
				c2.923,1.75-0.711,6.267,1.948,9.559c3.385,4.191,1.301,10.524,1.301,10.524h-16.212
				C402.454,421.353,406.13,420.521,406.552,417.656z"/>
			<path style="fill:#ADBEC4;" d="M416.565,416.583c0,0-3.833-2.014-8.917,0.652l1-1.833c0,0,3.367-2.099,7.45-0.533
				L416.565,416.583z"/>
			<path style="fill:#ADBEC4;" d="M417.233,419.63c0,0-5.457-1.896-10.54,0.771l0.955-1.943c0,0,4.833-2.092,8.917-0.526
				L417.233,419.63z"/>
		</g>
		<path style="fill:#EF6E4B;" d="M440.132,199.631c0,0-1.168,14.105,2.757,16.122c0,0-2.9,5.346-10.674,2.092
			c0,0,1.314-7.255-3.828-15.868C424.942,196.209,440.132,199.631,440.132,199.631z"/>
		<g>
			<path style="fill:#FF8B66;" d="M424.964,192.787c0,0-2.92-3.393-3.59,0.263c-0.775,4.236,2.972,6.252,3.834,4.951
				C426.069,196.7,424.964,192.787,424.964,192.787z"/>
			<path style="fill:#FF8B66;" d="M447.072,194.694c0,0,3.4-2.912,3.508,0.803c0.125,4.305-3.885,5.73-4.539,4.314
				C445.387,198.395,447.072,194.694,447.072,194.694z"/>
			<path style="fill:#FF8B66;" d="M434.516,209.072c-7.011-0.534-10.619-5.415-9.573-19.15c0.54-7.085,4.475-11.156,12.328-10.558
				c7.853,0.598,10.829,5.195,10.29,12.281C446.436,206.404,441.758,209.624,434.516,209.072z"/>
			<path style="fill:#DB614D;" d="M444.865,196.367c0.069,0.714-0.599,1.363-1.491,1.45c-0.893,0.087-1.673-0.422-1.742-1.136
				c-0.069-0.714,0.599-1.363,1.492-1.45C444.016,195.144,444.796,195.653,444.865,196.367z"/>
			<path style="fill:#DB614D;" d="M430.415,195.653c-0.101,0.71-0.903,1.184-1.791,1.058c-0.888-0.126-1.527-0.804-1.426-1.515
				c0.101-0.71,0.903-1.184,1.791-1.057C429.878,194.264,430.516,194.942,430.415,195.653z"/>
			<g>
				<path style="fill:#0E3944;" d="M442.376,188.964c-0.142,0.067-0.317,0.031-0.421-0.096c-0.893-1.092-2.606-1.18-2.623-1.18
					c-0.194-0.009-0.344-0.173-0.336-0.367c0.008-0.193,0.171-0.344,0.367-0.336c0.083,0.004,2.047,0.106,3.136,1.439
					c0.123,0.15,0.1,0.371-0.05,0.494C442.427,188.937,442.402,188.952,442.376,188.964z"/>
			</g>
			<g>
				<path style="fill:#0E3944;" d="M432.22,187.101c-0.056,0.026-0.119,0.038-0.185,0.031c-0.017-0.002-1.726-0.172-2.772,0.77
					c-0.145,0.131-0.367,0.118-0.496-0.026c-0.129-0.144-0.118-0.366,0.026-0.496c1.279-1.154,3.235-0.956,3.318-0.947
					c0.193,0.021,0.332,0.194,0.311,0.387C432.407,186.946,432.328,187.05,432.22,187.101z"/>
			</g>
			<path style="fill:#1A4850;" d="M441.313,192.67c-0.067,0.871-0.513,1.547-0.996,1.51c-0.484-0.037-0.822-0.772-0.756-1.643
				c0.066-0.871,0.512-1.547,0.996-1.51C441.04,191.064,441.379,191.799,441.313,192.67z"/>
			<path style="fill:#1A4850;" d="M431.425,191.869c-0.066,0.871-0.512,1.547-0.996,1.51c-0.484-0.037-0.822-0.772-0.756-1.643
				c0.066-0.871,0.512-1.547,0.996-1.51C431.153,190.263,431.491,190.998,431.425,191.869z"/>
			<path style="fill:#1A4850;" d="M432.188,200.467c0,0,4.32,0.943,6.656-0.058c0,0-1.517,3.137-3.879,2.665
				C432.602,202.602,432.188,200.467,432.188,200.467z"/>
			<path style="fill:#1A4850;" d="M438.988,192.058c0,0,0.802-2.096,1.633-1.878c0.831,0.218,1.329,2.104,1.329,2.104l1.295-0.565
				l-1.257,0.068c0,0-0.502-1.965-1.335-2.032C439.468,189.659,438.988,192.058,438.988,192.058z"/>
			<path style="fill:#1A4850;" d="M432.161,191.802c0,0-0.475-2.193-1.329-2.103c-0.854,0.09-1.633,1.878-1.633,1.878l-1.195-0.754
				l1.232,0.257c0,0,0.794-1.867,1.627-1.807C432.05,189.358,432.161,191.802,432.161,191.802z"/>
			<g>
				<path style="fill:#DB614D;" d="M435.985,197.152c-0.154,0.072-0.325,0.127-0.51,0.162l-0.142-0.745
					c0.634-0.121,0.8-0.495,0.826-0.787c0.038-0.412-0.184-0.818-0.407-0.905c-0.131-0.05-0.276,0.029-0.435,0.237l-0.603-0.46
					c0.528-0.692,1.094-0.569,1.313-0.483c0.563,0.22,0.952,0.958,0.886,1.68C436.859,196.44,436.522,196.901,435.985,197.152z"/>
			</g>
			<path style="fill:#0E3944;" d="M436.193,179.929c0,0,0.421,4.977-3.268,8.064c0,0,1.532-3.064,1.641-5.064
				c0,0-3.002,5.125-5.759,5.625c-2.757,0.5-6.757,1.983-6.757,1.983s1.784-12.108,13.767-12.858
				c11.983-0.75,14.632,6.722,12.42,14.924c0,0-4.755-2.049-5.658-6.799c0,0,1.155,3.623-5.187,2.187
				C437.392,187.991,438.711,184.179,436.193,179.929z"/>
		</g>
		<g>
			<path style="fill:#FFB878;" d="M476.509,325.176c-38.52,8.02-65.84-2.11-65.84-2.11l15.34-57.11l0.28-1.03l0.34-1.29l0.29-1.08
				l0.19-0.68l0.29-1.07l0.24-0.91l0.24-0.9c-0.03-0.03-0.07-0.06-0.1-0.09c-13.53-11.79-12.63-39.44-12.63-39.44
				c1.63-2.93,5-3.25,5-3.25c8.03,12.81,19.7,20.49,19.7,20.49c7.33-7.35,12.5-27.81,12.5-27.81c4.6-2.01,8.31,0.68,8.31,0.68
				c7.97,12.68,2.78,38.84,1.9,42.92c-0.08,0.35-0.12,0.54-0.12,0.54c0.17,0.35,0.34,0.71,0.5,1.07c0.11,0.23,0.22,0.47,0.33,0.71
				c0.33,0.72,0.65,1.43,0.96,2.15c0.21,0.47,0.41,0.94,0.6,1.42c0.39,0.91,0.76,1.82,1.12,2.74
				C478.489,293.056,476.509,325.176,476.509,325.176z"/>
			<g>
				<path style="fill:#F2A668;" d="M462.939,254.106l-0.82-0.69c-0.57-0.47-0.72-0.39-1.02-0.22c-0.66,0.35-1.36,0.56-2.79-0.84
					c-0.53-0.53-0.83-0.62-0.95-0.6c-0.23,0.01-0.48,0.28-0.76,0.6c-0.55,0.62-1.3,1.47-2.74,1.18c-0.98-0.19-1.3,0.17-1.7,0.63
					c-0.45,0.51-1.07,1.2-2.46,0.42c-0.71-0.39-1.28-0.15-2.16,0.27c-0.96,0.46-2.14,1.03-3.58,0.03c-0.36-0.26-0.5-0.23-0.51-0.23
					c-0.12,0.03-0.3,0.38-0.42,0.63c-0.27,0.53-0.61,1.2-1.36,1.43c-0.6,0.19-1.33,0.03-2.24-0.47c-1.43-0.8-1.84-0.23-2.51,0.71
					c-0.66,0.93-1.56,2.2-3.69,1.3c-1.36-0.57-1.73-0.18-2.34,0.47c-0.54,0.57-1.17,1.24-2.46,1.24c-0.24,0-0.5-0.02-0.79-0.07
					l0.24-0.9c-0.03-0.03-0.07-0.06-0.1-0.09c1.34,0.25,1.83-0.27,2.38-0.86c0.65-0.69,1.45-1.55,3.46-0.71
					c1.39,0.59,1.83-0.03,2.49-0.96c0.67-0.94,1.6-2.24,3.81-1c0.63,0.35,1.14,0.49,1.46,0.39c0.34-0.11,0.54-0.51,0.75-0.93
					c0.24-0.47,0.51-1.01,1.07-1.15c0.4-0.1,0.83,0.03,1.34,0.38c0.95,0.66,1.66,0.32,2.56-0.11c0.89-0.43,1.89-0.91,3.09-0.24
					c0.69,0.39,0.81,0.24,1.22-0.21c0.44-0.5,1.1-1.26,2.65-0.95c0.87,0.17,1.3-0.3,1.79-0.86c0.38-0.43,0.82-0.92,1.47-0.94
					c0.49-0.02,1.06,0.26,1.69,0.88c1.02,1,1.28,0.86,1.61,0.68c0.49-0.27,1.05-0.48,1.94,0.18c-0.08,0.35-0.12,0.54-0.12,0.54
					C462.609,253.386,462.779,253.746,462.939,254.106z"/>
				<path style="fill:#F2A668;" d="M464.829,258.386c-0.2-0.21-0.42-0.45-0.66-0.72c-0.5-0.56-1.02-1.15-1.61-1.59
					c-1.13-0.87-2.15-0.52-2.9-0.26c-0.68,0.24-1.02,0.33-1.42,0.01c-0.94-0.78-1.58-0.27-1.97,0.03c-0.4,0.31-0.64,0.5-1.35,0.1
					c-1.37-0.78-2.31,0.44-2.94,1.23c-0.76,0.98-0.92,1-1.16,0.81c-0.88-0.69-1.64-0.41-2.3-0.16c-0.77,0.29-1.49,0.56-2.81-0.29
					c-0.82-0.52-1.54-0.52-2.17-0.28c0.72-0.57,1.07-0.71,1.6-0.31c1.29,0.98,2.33,0.43,3.17-0.02c0.77-0.4,1.28-0.64,1.96-0.27
					c0.77,0.42,1.32,0.2,1.64-0.06c0.35-0.28,0.58-0.71,0.8-1.12c0.21-0.37,0.44-0.8,0.66-0.85c0.12-0.04,0.34,0.05,0.6,0.24
					c0.54,0.4,1.01,0.56,1.43,0.48c0.54-0.09,0.84-0.52,1.05-0.84c0.11-0.15,0.25-0.37,0.34-0.38c0.03,0,0.21,0.01,0.65,0.37
					c1.42,1.2,2.29,0.79,2.94,0.48c0.45-0.21,0.72-0.34,1.23-0.07c0.84,0.44,1.86,1.33,2.62,2.05c-0.31-0.72-0.63-1.43-0.96-2.15
					c-0.4-0.31-0.81-0.59-1.19-0.79c-0.96-0.5-1.64-0.18-2.13,0.06c-0.57,0.26-0.94,0.44-1.87-0.34c-0.55-0.47-1-0.65-1.43-0.6
					c-0.52,0.07-0.8,0.48-1.02,0.81c-0.14,0.2-0.28,0.4-0.4,0.42c-0.04,0.01-0.24,0.01-0.68-0.31c-0.51-0.37-0.97-0.51-1.4-0.41
					c-0.67,0.15-1.01,0.79-1.32,1.36c-0.17,0.32-0.35,0.66-0.54,0.81c-0.08,0.06-0.19,0.15-0.54-0.04
					c-1.19-0.64-2.14-0.14-2.91,0.27c-0.86,0.45-1.35,0.67-2.1,0.1c-1.27-0.95-2.28-0.12-3.1,0.54c-0.85,0.69-1.58,1.29-2.72,0.66
					c-1.74-0.95-2.63,0-3.34,0.76c-0.65,0.69-1.17,1.23-2.34,0.87c-2.6-0.8-3.53,0.56-4.28,1.64c-0.23,0.34-0.45,0.66-0.71,0.9
					c-0.12,0.11-0.24,0.16-0.41,0.14c-0.43-0.03-0.99-0.44-1.44-0.86l-0.29,1.07c0.47,0.39,1.07,0.74,1.66,0.79h0.12
					c0.39,0,0.75-0.14,1.04-0.41c0.34-0.31,0.6-0.69,0.86-1.06c0.7-1.02,1.26-1.83,3.16-1.25c1.76,0.54,2.68-0.43,3.35-1.15
					c0.69-0.74,1.08-1.14,2.14-0.56c1,0.55,1.82,0.44,2.51,0.12c-0.12,0.12-0.23,0.23-0.34,0.33c-1.07,1.05-1.49,1.31-2.05,0.89
					c-1.32-1-2.42-0.15-3.31,0.54c-1.04,0.8-1.73,1.24-2.74,0.67c-0.64-0.35-1.21-0.44-1.7-0.27c-0.84,0.3-1.22,1.28-1.56,2.13
					c-0.24,0.62-0.51,1.33-0.82,1.33c-0.78,0-1.8-0.76-2.51-1.42l-0.29,1.08c0.78,0.65,1.82,1.34,2.8,1.34
					c0.57,0,0.94-0.35,1.22-0.82c-0.04,0.09-0.09,0.17-0.14,0.26c-0.33,0.62-0.65,1.21-1.13,1.44c-0.8,0.38-2.11-0.26-3.09-0.93
					l-0.28,1.03c0.82,0.52,1.86,1.01,2.82,1.01c0.34,0,0.67-0.06,0.98-0.21c0.78-0.37,1.2-1.17,1.58-1.87
					c0.34-0.62,0.66-1.21,1.11-1.33c0.33-0.1,0.81,0.05,1.41,0.42c0.74,0.46,1.36,0.6,1.91,0.43c0.79-0.24,1.15-1.07,1.44-1.73
					c0.13-0.31,0.35-0.82,0.5-0.86c0.04-0.01,0.14,0.01,0.35,0.15c1.47,1.03,2.68,0.07,3.4-0.51c0.2-0.16,0.54-0.37,0.62-0.41
					c0.08,0.1,0.34,0.45,0.76,0.39c0.41-0.02,0.63-0.38,0.8-0.66c0.11-0.17,0.25-0.4,0.36-0.42c0.07-0.01,0.24,0.04,0.5,0.23
					c1.09,0.85,1.97,0.35,2.68-0.04c0.63-0.36,1.13-0.64,1.88-0.25c2.32,1.2,3.49,0.47,4.72-1.19c0.39-0.53,0.9-0.46,1.72-0.3
					c0.73,0.13,1.83,0.34,2.27-0.84c0.06-0.16,0.11-0.22,0.13-0.23c0.12-0.05,0.57,0.17,0.84,0.31c0.68,0.32,1.51,0.73,2.4,0.39
					c0.35-0.14,1.33,0.59,2.04,1.12c0.8,0.59,1.77,1.3,2.72,1.57C465.589,260.206,465.219,259.296,464.829,258.386z
					 M457.579,256.816c-0.32,0.12-0.55,0.4-0.7,0.81c-0.12,0.31-0.24,0.36-1.15,0.19c-0.81-0.15-1.93-0.36-2.71,0.69
					c-1.07,1.46-1.72,1.8-3.45,0.9c-1.23-0.64-2.16-0.11-2.83,0.27c-0.7,0.39-1.03,0.54-1.58,0.12c-0.47-0.36-0.89-0.49-1.29-0.43
					c-0.54,0.1-0.83,0.57-1.03,0.89c-0.01,0.01-0.02,0.03-0.03,0.05c-0.65-0.65-1.42-0.04-1.93,0.37c-0.83,0.67-1.4,1.03-2.2,0.47
					c-0.43-0.3-0.83-0.4-1.19-0.29c-0.61,0.17-0.88,0.8-1.15,1.42c-0.23,0.52-0.47,1.07-0.82,1.18c-0.31,0.09-0.76-0.13-1.08-0.32
					c-0.86-0.54-1.58-0.72-2.2-0.55c-0.67,0.18-1.08,0.71-1.43,1.3c0.14-0.28,0.26-0.58,0.37-0.87c0.26-0.66,0.55-1.41,0.96-1.56
					c0.22-0.07,0.51,0,0.87,0.2c1.66,0.94,2.92-0.04,3.85-0.75c1.01-0.78,1.45-1.03,2.1-0.53c1.33,1.01,2.45-0.09,3.35-0.97
					c1.09-1.07,1.81-1.68,2.86-1.02c1.74,1.12,2.87,0.7,3.7,0.39c0.63-0.24,0.91-0.32,1.33,0.01c1.12,0.87,1.99-0.24,2.57-0.98
					c0.78-1,1.13-1.28,1.66-0.98c1.3,0.73,2.02,0.16,2.46-0.18c0.37-0.29,0.4-0.31,0.72-0.05c0.08,0.07,0.16,0.12,0.24,0.17
					C457.759,256.776,457.669,256.776,457.579,256.816z M460.829,257.506c-0.48,0.18-1.05-0.1-1.6-0.36
					c-0.09-0.05-0.18-0.09-0.26-0.13c0.36-0.03,0.7-0.14,1.02-0.25c0.7-0.25,1.26-0.44,1.97,0.1c0.5,0.39,0.99,0.94,1.46,1.47
					c0.1,0.11,0.2,0.22,0.3,0.33C462.619,257.856,461.669,257.176,460.829,257.506z"/>
			</g>
		</g>
		<path style="fill:#F24052;" d="M447.894,209.206c0,0-0.635,6.85,3.044,13.705c7.148,13.317,7.724,29.087,7.724,29.087
			c6.264-1.617,10.809,2.476,10.809,2.476s-0.177-26.172-8.043-46.325C461.428,208.148,454.592,207.026,447.894,209.206z"/>
		<path style="fill:#F24052;" d="M425.555,215.436c0,0,2.954,7.092-1.671,20.495c-3.606,10.451-5.509,26.798-5.509,26.798
			c-4.238,1.327-5.366,4.556-5.366,4.556c-3.125-20.355,4.261-17.982,0.127-48.39C413.136,218.895,418.767,214.386,425.555,215.436z
			"/>
		<path style="fill:#CE364C;" d="M425.555,215.436c0,0-4.696-2.063-7.921,3.46c0,0,5.413,5.41,6.769,11.285l-6.109,4.565
			c0,0,1.501,6.074,1.733,15.254C420.027,250,431.101,223.691,425.555,215.436z"/>
		<path style="fill:#CE364C;" d="M447.894,209.206c0,0,3.37-2.65,9.451,3.517c0,0-5.513,4.903-4.725,10.188
			c0,0,4.64,0.312,7.473,2.812c0,0-2.38,8.167-3.273,12.333c0,0-4.184-11.125-6.872-15.146
			C447.259,218.889,447.894,209.206,447.894,209.206z"/>
		<path style="fill:#CE364C;" d="M394.437,233.504c0,0-3.553,12.86-9.553,13.08c0,0,2.63,25.037,12.003,26.004
			c0,0,5.856-10.301,3.927-19.542c-1.929-9.241-3.304-8.241-3.304-8.241L394.437,233.504z"/>
	</g>
	<g>
		<path style="fill:#CFD8DC;" d="M67.2,183.137c-11.658,7.251-24.162,30.441-28.41,40.846c-4.248,10.405-0.99,28.64,25.419,12.524
			S67.2,183.137,67.2,183.137z"/>
		<path style="fill:#CFD8DC;" d="M135.625,185.115c0,0,26,21.921,29,40.431s-13.923,23.809-27.337,0.909
			C123.875,203.556,135.625,185.115,135.625,185.115z"/>
		<g>
			<path style="fill:#CFD8DC;" d="M34.354,427.57c0,1.088,0.111,1.854,0.111,1.854h31.453c0-0.622-0.011-1.243-0.044-1.854
				c-0.355-8.227-2.953-15.366-2.953-15.366l-7.861-3.375c-0.677,4.052-2.42,6.639-4.608,8.327
				c-0.577,0.455-1.177,0.833-1.799,1.155c-0.289,0.155-0.577,0.3-0.877,0.433c-0.655,0.3-1.332,0.544-2.01,0.744
				c-2.776,0.844-5.585,1.021-7.55,1.321C34.865,421.33,34.354,425.205,34.354,427.57z"/>
			<path style="fill:#ADBEC4;" d="M34.354,427.57c0,1.088,0.111,1.854,0.111,1.854h31.453c0-0.622-0.011-1.243-0.044-1.854H34.354z"
				/>
			<path style="fill:#ADBEC4;" d="M48.654,418.31l4.363,1.399l0.922-1.599l-3.486-0.955
				C49.876,417.611,49.276,417.988,48.654,418.31z"/>
			<path style="fill:#ADBEC4;" d="M45.768,419.487l2.942,1.954l1.81-0.711l-2.742-1.987
				C47.122,419.043,46.445,419.287,45.768,419.487z"/>
		</g>
		<g>
			<path style="fill:#CFD8DC;" d="M90.187,427.57c0.078,1.066,0.355,1.854,0.355,1.854h20.951c0.266-0.611,0.455-1.221,0.588-1.854
				c2.065-10.026-11.857-22.294-11.857-22.294l-4.419,5.896c0,0,0.511,9.437-3.231,11.402
				C90.332,423.75,90.043,425.971,90.187,427.57z"/>
			<path style="fill:#ADBEC4;" d="M112.082,427.57H90.187c0.078,1.066,0.355,1.854,0.355,1.854h20.951
				C111.76,428.813,111.948,428.203,112.082,427.57z"/>
			<path style="fill:#ADBEC4;" d="M93.532,421.822c0,0,8.827-2.012,12.851,0.593v-1.457
				C106.383,420.958,98.958,417.35,93.532,421.822z"/>
			<path style="fill:#ADBEC4;" d="M95.281,419.583c0,0,5.636-2.577,11.103,0l-0.625-1.47
				C105.759,418.113,99.229,415.644,95.281,419.583z"/>
		</g>
		<path style="fill:#105E99;" d="M125.175,265.515c0,19.93-1.962,40.227-2.465,45.376c-0.503,5.149-5.835,62.665-6.585,84.915
			c-0.384,11.397-4.043,25.193-4.043,25.193s-10.858-8.777-17.008-2.256l-1.541-8.893l2.882-7.002c0,0-3.08-5.792-0.56-10.292
			s3.293-100.69,3.293-100.69l-4.851-0.311L69.021,402.848v6.34c0,0-3.057,8.074-3.102,13.228l-16.466-5.26l2.521-7.306
			l-0.676-10.431l4.617-13.603c0,0,17.076-106.385,15.768-118.322L125.175,265.515z"/>
		<path style="fill:#FFB878;" d="M70.875,181.639c0,0,11.512-6.059,28.422-5.655c16.911,0.404,28.244,4.441,31.244,7.256
			c3,2.815-4,97.511-4,97.511s-30.667,2.098-57-3.966c0,0,4-32.23,3.333-54.313C72.208,200.389,70.875,181.639,70.875,181.639z"/>
		<path style="fill:#EF6E4B;" d="M93.053,167.682c0,0,1.605,6.612-0.843,9.249c0,0,3.996,6.448,13.034-0.062
			c0,0-1.721-4.346,0-7.168L93.053,167.682z"/>
		<g>
			<path style="fill:#FF8B66;" d="M110.745,155.823c0,0,3.397-3.39,3.815,0.573c0.485,4.591-3.685,6.44-4.5,4.98
				C109.245,159.916,110.745,155.823,110.745,155.823z"/>
			<path style="fill:#FF8B66;" d="M86.959,156.062c0,0-3.397-3.39-3.815,0.573c-0.484,4.591,3.685,6.44,4.5,4.98
				C88.459,160.155,86.959,156.062,86.959,156.062z"/>
			<path style="fill:#FF8B66;" d="M99.21,172.452c7.537,0,11.791-4.923,11.791-19.688c0-7.616-3.875-12.288-12.317-12.288
				c-8.442,0-11.997,4.671-11.997,12.288C86.686,168.63,91.424,172.452,99.21,172.452z"/>
			<path style="fill:#DB614D;" d="M89.182,158.03c-0.132,0.758,0.529,1.506,1.476,1.671c0.947,0.165,1.823-0.315,1.954-1.072
				c0.132-0.758-0.529-1.506-1.476-1.671C90.19,156.792,89.314,157.273,89.182,158.03z"/>
			<path style="fill:#DB614D;" d="M104.684,158.443c0.05,0.767,0.869,1.339,1.828,1.276c0.96-0.062,1.697-0.735,1.647-1.503
				c-0.05-0.767-0.868-1.339-1.828-1.276C105.372,157.002,104.634,157.675,104.684,158.443z"/>
			<g>
				<path style="fill:#0C476B;" d="M91.625,150.248c0.099,0.015,0.202-0.008,0.287-0.074c1.2-0.922,3-0.596,3.028-0.591
					c0.201,0.033,0.401-0.096,0.439-0.301c0.039-0.205-0.096-0.401-0.3-0.44c-0.079-0.017-2.161-0.39-3.624,0.735
					c-0.165,0.127-0.196,0.363-0.07,0.528C91.445,150.186,91.533,150.234,91.625,150.248z"/>
			</g>
			<g>
				<path style="fill:#0C476B;" d="M106.05,150.301c0.092-0.011,0.181-0.057,0.244-0.135c0.132-0.161,0.108-0.398-0.052-0.53
					c-1.428-1.17-3.519-0.86-3.6-0.846c-0.205,0.032-0.346,0.224-0.314,0.43c0.032,0.206,0.232,0.342,0.43,0.315
					c0.013-0.005,1.847-0.266,3.006,0.684C105.849,150.286,105.952,150.313,106.05,150.301z"/>
			</g>
			<path style="fill:#1A4850;" d="M92.405,154.503c0,0.936,0.422,1.695,0.942,1.695c0.52,0,0.942-0.759,0.942-1.695
				s-0.422-1.695-0.942-1.695C92.826,152.808,92.405,153.566,92.405,154.503z"/>
			<path style="fill:#1A4850;" d="M102.47,154.503c0,0.936,0.421,1.695,0.941,1.695c0.52,0,0.942-0.759,0.942-1.695
				c0-0.936-0.422-1.695-0.942-1.695C102.891,152.808,102.47,153.567,102.47,154.503z"/>
			<path style="fill:#0C476B;" d="M107.655,144.09c0,0-5.242-0.363-16.757-1.19c0,0-4.211,4.385-3.913,15.184
				c0,0-6.743-19.451,12.941-19.451c19.684,0,10.816,19.02,10.816,19.02S111.316,147.735,107.655,144.09z"/>
			<g>
				<path style="fill:#DB614D;" d="M98.733,159.401l0.564-0.568l-1.491-1.481c1.445-2.044,1.438-6.774,1.437-6.984l-0.801,0.004
					c0,0.051,0.008,5.14-1.468,6.739l-0.262,0.284L98.733,159.401z"/>
			</g>
			<path style="fill:#1A4850;" d="M103.735,161.866c0,0-7.418,0.313-11.163-0.678c0,0-0.662,5.394,5.087,5.662
				C103.735,167.133,103.735,161.866,103.735,161.866z"/>
			<path style="fill:#0D527C;" d="M89.467,145.073c0,0-3.303-2.864-2.781-6.44c0.522-3.577,8.189-6.297,14.855-4.937
				c0,0,3.551-1.87,8.276,1.162c4.724,3.032,7.891,12.027,3.724,17.613c0,0,0.977-9.486-4.465-6.278
				C109.077,146.192,100.56,141.59,89.467,145.073z"/>
		</g>
		<path style="fill:#F24052;" d="M108.59,176.608c0,0-7.785,51.612,0,76.53c0,0,26.035-0.86,28.535-1.721
			c2.5-0.861,5-54.742-1.5-66.301C135.625,185.115,124.97,176.285,108.59,176.608z"/>
		<path style="fill:#CFD8DC;" d="M162.309,238.576c-2.38,3.97-10.16,8.51-17.01,9.97c-3.04,0.65-5.89,0.7-8.01-0.17
			c0,0-1.12-11.1-7.52-17.21c0,0,0.26-0.84,1.1-1.95c1.84-2.43,6.43-6.14,17.05-5.03
			C163.379,225.806,165.739,232.856,162.309,238.576z"/>
		<g>
			<path style="fill:#B72E48;" d="M117.095,177.256c0,0-4.29,6.27-9.75,9.16c0,0-0.16-0.88-0.22-2.22
				c-0.02-0.35-0.03-0.74-0.03-1.16c0-0.69,0.03-1.45,0.12-2.24c0.05-0.44,0.11-0.89,0.2-1.35c0.55-2.97,1.97-6.07,5.32-7.5
				c0,0,0.89,0.21,1.9,1.04c0.24,0.2,0.48,0.43,0.72,0.7c0.32,0.37,0.64,0.81,0.92,1.34c0.17,0.31,0.32,0.64,0.45,1.01
				C116.875,176.406,116.995,176.816,117.095,177.256z"/>
			<g>
				<path style="fill:#CFD8DC;" d="M116.725,176.036c-1.97,2.27-5.17,5.41-9.6,8.16c-0.02-0.35-0.03-0.74-0.03-1.16
					c4.31-2.76,7.36-5.86,9.18-8.01C116.445,175.336,116.595,175.666,116.725,176.036z"/>
			</g>
			<g>
				<path style="fill:#CFD8DC;" d="M115.355,173.686c-1.8,2.02-4.5,4.67-8.14,7.11c0.05-0.44,0.11-0.89,0.2-1.35
					c3.2-2.26,5.6-4.63,7.22-6.46C114.875,173.186,115.115,173.416,115.355,173.686z"/>
			</g>
		</g>
		<g>
			<path style="fill:#B72E48;" d="M137.285,254.926c0,0.34,0,0.68-0.02,1c-0.04,0.88-0.15,1.58-0.39,1.67
				c-0.75,0.28-27.06,2.02-27.06,2.02l-0.33-1.74l-0.18-0.98l-0.29-1.55l-0.19-0.98l-0.23-1.23c9.46-1.67,28.53-1.72,28.53-1.72
				s0.03,0.37,0.07,0.92c0.01,0.29,0.03,0.63,0.05,1C137.265,253.836,137.285,254.386,137.285,254.926z"/>
			<g>
				<path style="fill:#CFD8DC;" d="M137.245,253.336c-10.58-0.11-22.34,1.21-28.23,2.01l-0.19-0.98c5.91-0.8,17.72-2.13,28.37-2.03
					C137.205,252.626,137.225,252.966,137.245,253.336z"/>
			</g>
			<g>
				<path style="fill:#CFD8DC;" d="M137.285,254.926c0,0.34,0,0.68-0.02,1c-10.32-0.11-21.75,1.14-27.78,1.95l-0.18-0.98
					C115.375,256.086,126.885,254.826,137.285,254.926z"/>
			</g>
		</g>
		<path style="fill:#CFD8DC;" d="M122.94,195.941l-4.065,0.496l-4.276,15.519h3.276l1.667-5.4l3.753-0.167l2.392,4.591l4.087-0.758
			L122.94,195.941z M120.042,203.948l0.833-4.301l2.065,4.301H120.042z"/>
		<path style="fill:#F24052;" d="M89.88,176.608c0,0,3.926,51.752-3.687,76.738c0,0-21.405-0.863-23.423-1.726
			s-1.481-56.891,4.43-68.483C67.2,183.137,76.403,176.284,89.88,176.608z"/>
		<g>
			<path style="fill:#B72E48;" d="M80.766,177.256c0,0,4.29,6.27,9.75,9.16c0,0,0.16-0.88,0.22-2.22c0.02-0.35,0.03-0.74,0.03-1.16
				c0-0.69-0.03-1.45-0.12-2.24c-0.05-0.44-0.11-0.89-0.2-1.35c-0.55-2.97-1.97-6.07-5.32-7.5c0,0-0.89,0.21-1.9,1.04
				c-0.24,0.2-0.48,0.43-0.72,0.7c-0.32,0.37-0.64,0.81-0.92,1.34c-0.17,0.31-0.32,0.64-0.45,1.01
				C80.986,176.406,80.866,176.816,80.766,177.256z"/>
			<g>
				<path style="fill:#CFD8DC;" d="M81.136,176.036c1.97,2.27,5.17,5.41,9.6,8.16c0.02-0.35,0.03-0.74,0.03-1.16
					c-4.31-2.76-7.36-5.86-9.18-8.01C81.416,175.336,81.266,175.666,81.136,176.036z"/>
			</g>
			<g>
				<path style="fill:#CFD8DC;" d="M82.506,173.686c1.8,2.02,4.5,4.67,8.14,7.11c-0.05-0.44-0.11-0.89-0.2-1.35
					c-3.2-2.26-5.6-4.63-7.22-6.46C82.986,173.186,82.746,173.416,82.506,173.686z"/>
			</g>
		</g>
		<g>
			<path style="fill:#B72E48;" d="M62.469,255.139c-0.016,0.341-0.033,0.682-0.032,1.003c-0.009,0.882,0.048,1.584,0.241,1.674
				c0.604,0.281,22.194,2.025,22.194,2.025l0.356-1.745l0.195-0.983l0.314-1.554l0.204-0.983l0.249-1.233
				c-7.712-1.674-23.419-1.725-23.419-1.725s-0.042,0.371-0.102,0.923c-0.022,0.291-0.055,0.632-0.089,1.003
				C62.538,254.046,62.495,254.597,62.469,255.139z"/>
			<g>
				<path style="fill:#CFD8DC;" d="M62.578,253.544c8.721-0.11,18.344,1.213,23.158,2.015l0.204-0.983
					c-4.83-0.802-14.494-2.136-23.272-2.035C62.645,252.832,62.613,253.173,62.578,253.544z"/>
			</g>
			<g>
				<path style="fill:#CFD8DC;" d="M62.469,255.139c-0.016,0.341-0.033,0.682-0.032,1.003c8.506-0.11,17.862,1.143,22.79,1.955
					l0.195-0.983C80.461,256.302,71.041,255.038,62.469,255.139z"/>
			</g>
		</g>
		<path style="fill:#CFD8DC;" d="M48.711,189.752c6.327,1.637,10.164,33.858,6.497,41.414c-3.667,7.556-8.937,12.461-17.968,5.342
			s-4.865-43.952,0.968-46.452C40.943,188.883,48.711,189.752,48.711,189.752z"/>
		<path style="fill:#B72E48;" d="M48.805,188.056c0,0.68-0.03,1.27-0.11,1.79c-0.06,0.49-0.17,0.92-0.31,1.29
			c-0.84,2.17-2.91,2.26-5.84,2.42c-2.48,0.13-3.82-0.58-4.25-2.21c-0.14-0.48-0.19-1.03-0.16-1.66c0-0.41,0.05-0.85,0.12-1.32
			c0.05-0.38,0.12-0.77,0.2-1.19c0.16-0.73,0.36-1.52,0.61-2.38c0.5-1.72,5.56-2.05,5.56-2.05c1.53-0.14,3.67,0.18,3.9,1.92
			c0.11,0.84,0.19,1.59,0.23,2.27C48.785,187.336,48.805,187.706,48.805,188.056z"/>
		<g>
			<path style="fill:#FF8B66;" d="M35.843,171.586c0.799,0.91,2.121,4.452,2.121,4.452c0.555,2.975,0.877,4.619,1.921,5.984
				c1.032,1.366,0.488,3.775,0.488,3.775s4.041,2.076,7.439-0.488c0,0-0.355-2.387,0-3.064c0.7-1.354,2.942-2.076,3.708-4.807
				c0.766-2.742,3.064-5.796,3.064-5.796s-0.655-1.421-1.854-0.555c-1.21,0.877-1.976,3.064-2.631,3.286
				c-0.133,0.044-0.267,0.078-0.4,0.089c0,0-0.011,0-0.033,0.011c-0.5,0.067-1.01-0.044-1.321-0.344
				c-0.022-0.011-0.056-0.033-0.078-0.067c-1.099-1.277-1.354-5.03-1.31-6.706c0.067-2.331-0.022-5.551-1.443-5.007
				c-1.421,0.544-0.122,1.843-1.221,6.983l-0.533,0.067c-0.1,0.366-1.077-3.12-1.31-6.395c-0.167-2.254-1.643-1.421-1.965-0.711
				c-0.333,0.711,0.167,2.953,0.266,4.585c0.078,1.077,0.167,2.198,0.222,2.865l-0.622,0.344c-2.243-3.908-1.477-5.529-2.787-5.607
				c-1.299-0.078-0.833,3.22-0.133,4.474c0.3,0.544,0.589,1.676,0.822,2.787c-2.298-2.654-2.043-4.041-3.098-3.875
				C34.067,168.044,35.044,170.676,35.843,171.586z"/>
			<path style="fill:#EF6E4B;" d="M45.769,177.704c0.777-2.143,3.553-3.12,3.897-3.231c-0.5,0.067-1.01-0.044-1.321-0.344
				C45.625,175.35,45.769,177.704,45.769,177.704z"/>
		</g>
		<g>
			<path style="fill:#CFD8DC;" d="M48.805,188.056c-1.96,0.99-5.55,1.15-7.65,1.15c-0.23,0-0.44,0-0.63-0.01
				c-0.95-0.02-1.7-0.35-2.27-0.83c0.05-0.38,0.12-0.77,0.2-1.19c0.45,0.53,1.11,1,2.09,1.02c3.05,0.05,6.86-0.26,8.21-1.26
				C48.785,187.336,48.805,187.706,48.805,188.056z"/>
		</g>
		<g>
			<path style="fill:#CFD8DC;" d="M48.695,189.846c-0.06,0.49-0.17,0.92-0.31,1.29c-2.02,0.84-5.3,0.98-7.27,0.98
				c-0.23,0-0.44,0-0.63-0.01c-0.91-0.01-1.63-0.32-2.19-0.76c-0.14-0.48-0.19-1.03-0.16-1.66c0.4,0.67,1.13,1.4,2.37,1.42
				C43.545,191.156,47.345,190.846,48.695,189.846z"/>
		</g>
		<path style="fill:#CFD8DC;" d="M74.312,228.534c0,0,2.339,2.332,1.988,3.552c-0.351,1.22-8.601,10.984-9.601,13.977l-2.75-1.507
			C63.949,244.556,68.176,231.512,74.312,228.534z"/>
		<path style="fill:#B5C4C9;" d="M145.299,248.546c-3.04,0.65-5.89,0.7-8.01-0.17c0,0-1.12-11.1-7.52-17.21c0,0,0.26-0.84,1.1-1.95
			C134.519,231.906,147.339,241.906,145.299,248.546z"/>
		<path style="fill:#CFD8DC;" d="M127.875,228.534c0,0,10.24,9.475,9.37,20.498c0,0-4.448,1.643-4.659,0s-2.637-11.245-7.411-16.946
			C124.434,231.2,127.875,228.534,127.875,228.534z"/>
	</g>
	<g>
		<path style="fill:#0D527C;" d="M383.079,156.196c-0.66,5.76-3.72,12.9-7.53,19.9c-0.96,1.78-1.98,3.55-3.02,5.28
			c-1.31,2.2-2.66,4.33-3.98,6.36c-1.25,1.91-2.48,3.72-3.64,5.39c-4.51,6.5-8.08,10.97-8.08,10.97l-10.69-32.15l7.89-10.97
			l2.32-3.24l2.3-3.2l2.34-3.26l2.47-3.43c0.62-16.79-1.83-42.78,4.49-44.42c0,0,7.77-0.86,10.51,0.31
			C384.289,106.236,385.649,133.636,383.079,156.196z"/>
		<path style="fill:#105E99;" d="M367.86,101.733c0,0.68,0.03,1.27,0.11,1.79c0.06,0.49,0.17,0.92,0.31,1.29
			c0.84,2.17,2.91,2.26,5.84,2.42c2.48,0.13,3.82-0.58,4.25-2.21c0.14-0.48,0.19-1.03,0.16-1.66c0-0.41-0.05-0.85-0.12-1.32
			c-0.05-0.38-0.12-0.77-0.2-1.19c-0.16-0.73-0.36-1.52-0.61-2.38c-0.5-1.72-5.56-2.05-5.56-2.05c-1.53-0.14-3.67,0.18-3.9,1.92
			c-0.11,0.84-0.19,1.59-0.23,2.27C367.88,101.013,367.86,101.383,367.86,101.733z"/>
		<g>
			<path style="fill:#FF8B66;" d="M380.822,85.264c-0.799,0.91-2.121,4.452-2.121,4.452c-0.555,2.975-0.877,4.619-1.921,5.984
				c-1.033,1.366-0.488,3.775-0.488,3.775s-4.041,2.076-7.439-0.489c0,0,0.355-2.387,0-3.064c-0.7-1.354-2.942-2.076-3.708-4.807
				c-0.766-2.742-3.064-5.796-3.064-5.796s0.655-1.421,1.854-0.555c1.21,0.877,1.976,3.064,2.631,3.286
				c0.133,0.044,0.267,0.078,0.4,0.089c0,0,0.011,0,0.033,0.011c0.5,0.067,1.01-0.044,1.321-0.344
				c0.022-0.011,0.056-0.033,0.078-0.067c1.099-1.277,1.354-5.029,1.31-6.706c-0.067-2.331,0.022-5.551,1.443-5.007
				c1.421,0.544,0.122,1.843,1.221,6.983l0.533,0.067c0.1,0.366,1.077-3.12,1.31-6.395c0.167-2.254,1.643-1.421,1.965-0.711
				c0.333,0.711-0.167,2.953-0.267,4.585c-0.078,1.077-0.167,2.198-0.222,2.864l0.622,0.344c2.243-3.908,1.477-5.529,2.787-5.607
				c1.299-0.078,0.833,3.22,0.133,4.474c-0.3,0.544-0.589,1.676-0.822,2.787c2.298-2.654,2.043-4.041,3.098-3.875
				C382.598,81.722,381.621,84.354,380.822,85.264z"/>
			<path style="fill:#EF6E4B;" d="M370.896,91.382c-0.777-2.143-3.553-3.12-3.897-3.231c0.5,0.067,1.01-0.044,1.321-0.344
				C371.041,89.028,370.896,91.382,370.896,91.382z"/>
		</g>
		<g>
			<path style="fill:#CFD8DC;" d="M368.549,187.736c-1.25,1.91-2.48,3.72-3.64,5.39c-0.91-21.76-8.07-29.81-10.88-32.15l2.32-3.24
				C359.589,160.356,366.689,168.226,368.549,187.736z"/>
		</g>
		<g>
			<path style="fill:#CFD8DC;" d="M375.549,176.096c-0.96,1.78-1.98,3.55-3.02,5.28c-3.1-18.77-12.02-25.61-13.88-26.84l2.34-3.26
				C363.549,152.986,371.699,159.596,375.549,176.096z"/>
		</g>
		<path style="fill:#0D527C;" d="M294.889,286.986c-3.44-1.07-18.56-23.44-20.2-36.38c-0.83-6.62,2.76-20.23,7.82-33.92
			c0.57-1.55,1.16-3.11,1.77-4.65c0.87-2.21,1.77-4.4,2.69-6.55c0.67-1.57,1.35-3.12,2.04-4.63c3.22-7.1,6.54-13.38,9.44-17.62
			l4.05,38l0.7,6.51l0.61,5.76l-0.08,0.13l-2.11,3.41l-6.73,10.87c0,0,7.01,25.17,8.92,27.56
			C305.729,277.866,298.329,288.056,294.889,286.986z"/>
		<g>
			<path style="fill:#CFD8DC;" d="M303.199,227.746c-6.81-6.39-12.97-16.44-16.23-22.26c0.67-1.57,1.35-3.12,2.04-4.63
				c2.04,3.82,7.35,13.29,13.49,20.38L303.199,227.746z"/>
		</g>
		<g>
			<path style="fill:#CFD8DC;" d="M303.729,233.636l-2.11,3.41c-8.3-5.49-15.1-14.34-19.11-20.36c0.57-1.55,1.16-3.11,1.77-4.65
				C287.729,217.496,294.939,227.776,303.729,233.636z"/>
		</g>
		<path style="fill:#FF8B66;" d="M300.567,277.655c0,0-4.737,2.067-4.237,6.484l7.484,6.792l1.766-6.792L300.567,277.655z"/>
		<g>
			<path style="fill:#F24052;" d="M394.634,427.57c0,1.088-0.111,1.854-0.111,1.854h-31.454c0-0.622,0.011-1.243,0.044-1.854
				c0.355-8.227,2.953-15.366,2.953-15.366l7.861-3.375c0.677,4.052,2.42,6.639,4.608,8.327c0.577,0.455,1.177,0.833,1.799,1.155
				c0.289,0.155,0.577,0.3,0.877,0.433c0.655,0.3,1.332,0.544,2.01,0.744c2.776,0.844,5.585,1.021,7.55,1.321
				C394.123,421.33,394.634,425.205,394.634,427.57z"/>
			<path style="fill:#ADBEC4;" d="M394.634,427.57c0,1.088-0.111,1.854-0.111,1.854h-31.454c0-0.622,0.011-1.243,0.044-1.854
				H394.634z"/>
			<path style="fill:#ADBEC4;" d="M380.334,418.31l-4.363,1.399l-0.922-1.599l3.486-0.955
				C379.112,417.611,379.712,417.988,380.334,418.31z"/>
			<path style="fill:#ADBEC4;" d="M383.22,419.487l-2.942,1.954l-1.81-0.711l2.742-1.987
				C381.866,419.043,382.543,419.287,383.22,419.487z"/>
		</g>
		<g>
			<path style="fill:#F24052;" d="M338.801,427.57c-0.078,1.066-0.355,1.854-0.355,1.854h-20.951
				c-0.266-0.611-0.455-1.221-0.589-1.854c-2.065-10.026,11.858-22.294,11.858-22.294l4.419,5.896c0,0-0.511,9.437,3.231,11.402
				C338.657,423.75,338.945,425.971,338.801,427.57z"/>
			<path style="fill:#ADBEC4;" d="M316.907,427.57h21.894c-0.078,1.066-0.355,1.854-0.355,1.854h-20.951
				C317.229,428.813,317.04,428.203,316.907,427.57z"/>
			<path style="fill:#ADBEC4;" d="M335.456,421.822c0,0-8.827-2.012-12.851,0.593v-1.457
				C322.605,420.958,330.03,417.35,335.456,421.822z"/>
			<path style="fill:#ADBEC4;" d="M333.708,419.583c0,0-5.636-2.577-11.103,0l0.625-1.47
				C323.229,418.113,329.759,415.644,333.708,419.583z"/>
		</g>
		<path style="fill:#8B383E;" d="M303.813,265.515c0,19.93,1.962,40.227,2.465,45.376c0.503,5.149,5.835,62.665,6.585,84.915
			c0.384,11.397,4.043,25.193,4.043,25.193s10.858-8.777,17.009-2.256l1.541-8.893l-2.883-7.002c0,0,3.08-5.792,0.56-10.292
			c-2.521-4.5-3.293-100.69-3.293-100.69l4.851-0.311l25.276,111.293v6.34c0,0,3.057,8.074,3.102,13.228l16.467-5.26l-2.521-7.306
			l0.676-10.431l-4.617-13.603c0,0-17.076-106.385-15.768-118.322L303.813,265.515z"/>
		<path style="fill:#8B383E;" d="M305.579,277.655c0,0-4.775,7.901-5.013,13.276l7.013,10.874L305.579,277.655z"/>
		<path style="fill:#F24052;" d="M352.829,167.682c0,0-2.55,6.82-21,7.748c-16.894,0.85-30.383,4.995-33.383,7.81
			c-3,2.815,4.811,96.23,4.811,96.23c14.193-0.992,29.855,14.899,56.189,8.835c0,0-4-43.749-3.333-65.833
			C356.78,200.389,352.829,167.682,352.829,167.682z"/>
		<path style="fill:#EF6E4B;" d="M334.934,167.682c0,0-1.547,5.111,0.902,7.748c0,0-4.054,7.948-13.092,1.438
			c0,0,1.721-4.346,0-7.168L334.934,167.682z"/>
		<g>
			<path style="fill:#FF8B66;" d="M317.243,154.823c0,0-3.397-3.39-3.815,0.573c-0.484,4.591,3.685,6.44,4.5,4.98
				C318.743,158.915,317.243,154.823,317.243,154.823z"/>
			<path style="fill:#FF8B66;" d="M341.028,155.062c0,0,3.397-3.39,3.815,0.573c0.484,4.591-3.685,6.44-4.5,4.98
				C339.528,159.154,341.028,155.062,341.028,155.062z"/>
			<path style="fill:#FF8B66;" d="M328.778,171.451c-7.537,0-11.791-4.923-11.791-19.688c0-7.616,3.875-12.288,12.317-12.288
				c8.442,0,11.997,4.671,11.997,12.288C341.301,167.629,336.564,171.451,328.778,171.451z"/>
			<path style="fill:#DB614D;" d="M338.805,157.029c0.132,0.758-0.529,1.506-1.476,1.671c-0.947,0.165-1.823-0.315-1.954-1.072
				c-0.132-0.758,0.529-1.506,1.476-1.671C337.798,155.792,338.673,156.272,338.805,157.029z"/>
			<path style="fill:#DB614D;" d="M323.303,157.442c-0.05,0.767-0.869,1.339-1.828,1.276c-0.96-0.062-1.697-0.735-1.647-1.503
				c0.05-0.767,0.868-1.339,1.828-1.276C322.616,156.002,323.353,156.675,323.303,157.442z"/>
			<g>
				<path style="fill:#CE364C;" d="M336.362,149.248c-0.098,0.015-0.202-0.008-0.287-0.074c-1.2-0.922-3-0.596-3.028-0.591
					c-0.201,0.033-0.401-0.096-0.439-0.301c-0.039-0.205,0.096-0.401,0.3-0.44c0.079-0.017,2.161-0.39,3.624,0.735
					c0.165,0.127,0.196,0.363,0.07,0.528C336.542,149.185,336.454,149.233,336.362,149.248z"/>
			</g>
			<g>
				<path style="fill:#CE364C;" d="M321.937,149.3c-0.092-0.011-0.181-0.057-0.245-0.135c-0.132-0.161-0.108-0.398,0.052-0.53
					c1.428-1.17,3.519-0.86,3.6-0.846c0.205,0.032,0.346,0.224,0.314,0.43c-0.032,0.206-0.232,0.342-0.43,0.315
					c-0.013-0.005-1.848-0.266-3.006,0.684C322.139,149.286,322.036,149.312,321.937,149.3z"/>
			</g>
			<path style="fill:#1A4850;" d="M335.583,153.502c0,0.936-0.422,1.695-0.942,1.695c-0.52,0-0.942-0.759-0.942-1.695
				c0-0.936,0.422-1.695,0.942-1.695C335.161,151.807,335.583,152.566,335.583,153.502z"/>
			<path style="fill:#1A4850;" d="M325.518,153.502c0,0.936-0.421,1.695-0.941,1.695c-0.52,0-0.942-0.759-0.942-1.695
				c0-0.936,0.422-1.695,0.942-1.695C325.096,151.807,325.518,152.566,325.518,153.502z"/>
			<path style="fill:#CE364C;" d="M321.334,142.089c0,0,4.241,0.638,15.756-0.189c0,0,0.864,3.906,2.806,5.634
				c0,0,1.219,5.5,1.107,9.55c0,0,7.325-22.028-12.941-21.452c-20.601,0.585-10.816,21.021-10.816,21.021s0.122-3.119,0.794-6.579
				C318.04,150.072,320.773,146.555,321.334,142.089z"/>
			<g>
				<path style="fill:#DB614D;" d="M329.254,158.4l-0.564-0.568l1.491-1.481c-1.445-2.044-1.438-6.774-1.437-6.984l0.801,0.004
					c0,0.051-0.008,5.14,1.468,6.739l0.262,0.284L329.254,158.4z"/>
			</g>
			<path style="fill:#1A4850;" d="M324.252,160.865c0,0,7.418,0.313,11.163-0.678c0,0,0.662,5.394-5.087,5.662
				C324.252,166.133,324.252,160.865,324.252,160.865z"/>
		</g>
		<path style="fill:#105E99;" d="M352.554,163.024c-5.474,7.782-13.122,10.1-13.122,10.1s1.694,7.712-8.585,8.432
			c-9.517,0.667-11.675-5.59-11.675-5.59s-14.842,2.507-19.592,5.674c-4.75,3.166-6,69.743-3.25,76.33
			c2.75,6.587,13.492,13.537,38.371,11.812c24.879-1.725,26.379-9.8,25.879-13.262c-0.5-3.463,1.662-46.742,0.071-62.215
			C358.113,169.632,352.554,163.024,352.554,163.024z"/>
		<path style="fill:#0D527C;" d="M300.567,263.316v6.986c0,0,37.64,4.283,58.702-4.357l-1.001-3.124
			C358.268,262.821,320.079,266.966,300.567,263.316z"/>
		<path style="fill:#0D527C;" d="M319.171,175.965c0,0,1.731-1.218,2.326-1.001c0,0,3.332,6.658,9.487,5.591
			c6.155-1.067,6.699-6.825,6.699-6.825s0.851-1.539,1.749-0.607c0.898,0.932,1.206,9.432-8.448,9.932
			C321.329,183.556,319.013,177.708,319.171,175.965z"/>
		<path style="fill:#CFD8DC;" d="M349.883,187.734l-9.02,2.243l1.454,7.02c0,0,4.449-2.763,6.329,0.124
			c1.115,1.712-0.357,7.96-6.329,5.543v2.297c0,0,6.528,1.493,8.528-4.11s-1.421-8.375-7.083-6.604l-0.443-2.452l6.776-1.931
			L349.883,187.734z"/>
	</g>
</g>
</svg>
